<svg width="603" height="602" viewBox="0 0 603 602" fill="none" xmlns="http://www.w3.org/2000/svg">
<g clip-path="url(#clip0_411_4329)">
<path d="M428.31 429.549C422.907 429.924 417.41 429.964 411.847 429.643C407.367 429.389 402.953 428.907 398.62 428.185C387.841 426.446 377.557 423.384 367.928 419.131C353.231 412.725 340.031 403.618 328.918 392.505L328.864 392.451C317.698 381.284 308.617 368.085 302.198 353.507C301.703 352.397 301.221 351.274 300.767 350.151C300.312 351.274 299.844 352.384 299.349 353.494C292.917 368.192 283.823 381.405 272.696 392.531L272.656 392.571C261.489 403.738 248.276 412.832 233.672 419.252C224.003 423.518 213.732 426.62 203.02 428.372C193.899 429.87 184.484 430.378 174.869 429.83C174.361 429.803 173.839 429.763 173.318 429.723C172.93 424.307 172.89 418.81 173.211 413.247C173.465 408.767 173.946 404.353 174.668 400.02C176.393 389.255 179.469 378.984 183.695 369.355C190.128 354.658 199.222 341.445 210.349 330.318L210.402 330.264C221.569 319.098 234.769 310.017 249.346 303.598C250.456 303.103 251.579 302.621 252.702 302.167C251.579 301.712 250.456 301.257 249.359 300.749C234.648 294.33 221.449 285.223 210.322 274.096L210.282 274.056C199.115 262.889 190.021 249.676 183.602 235.099C179.322 225.416 176.233 215.132 174.481 204.42C172.983 195.299 172.475 185.884 173.023 176.269C173.05 175.761 173.09 175.239 173.13 174.718C178.547 174.33 184.043 174.29 189.606 174.611C194.087 174.865 198.5 175.346 202.833 176.068C213.598 177.793 223.883 180.883 233.512 185.109C248.222 191.528 261.422 200.635 272.549 211.762L272.589 211.802C283.756 222.969 292.836 236.169 299.256 250.746C299.75 251.856 300.232 252.979 300.687 254.102C301.141 252.979 301.609 251.869 302.104 250.759C308.537 236.062 317.617 222.862 328.744 211.735L328.798 211.682C339.964 200.515 353.177 191.421 367.754 185.002C377.437 180.722 387.721 177.633 398.433 175.881C407.554 174.383 416.969 173.875 426.584 174.423C427.093 174.45 427.614 174.49 428.136 174.53C428.524 179.947 428.564 185.443 428.243 191.006C427.989 195.487 427.507 199.9 426.785 204.233C425.06 214.998 421.971 225.283 417.745 234.912C411.325 249.622 402.218 262.822 391.091 273.949L391.051 273.989C379.884 285.156 366.685 294.236 352.108 300.656C350.998 301.15 349.874 301.632 348.751 302.086C349.874 302.541 350.984 303.009 352.094 303.504C366.792 309.937 380.005 319.031 391.131 330.157L391.171 330.197C402.338 341.364 411.432 354.577 417.838 369.168C422.118 378.85 425.207 389.134 426.959 399.847C428.457 408.967 428.965 418.382 428.417 427.998C428.39 428.506 428.35 429.027 428.31 429.549Z" fill="#3921D7"/>
<path d="M210.415 274.002C209.372 272.959 208.329 271.889 207.326 270.806L208.704 269.509C212.983 274.082 217.61 278.362 222.478 282.24L221.301 283.711C217.517 280.702 213.852 277.412 210.402 273.989L210.415 274.002ZM204.772 267.984C200.586 263.236 196.721 258.114 193.284 252.805L194.875 251.775C198.259 257.004 202.07 262.046 206.189 266.727L204.772 267.984ZM224.324 286.065L225.461 284.554C230.462 288.298 235.785 291.695 241.268 294.664L240.372 296.336C234.809 293.34 229.406 289.89 224.337 286.078L224.324 286.065ZM191.265 249.582C187.988 244.166 185.073 238.469 182.625 232.625L184.377 231.889C186.784 237.64 189.66 243.27 192.883 248.606L191.265 249.582ZM243.742 298.074L244.598 296.389C250.175 299.184 256.006 301.592 261.943 303.517L261.355 305.309C255.337 303.33 249.412 300.91 243.755 298.061L243.742 298.074ZM181.208 229.094C178.934 223.183 177.089 217.058 175.711 210.866L177.557 210.465C178.908 216.55 180.726 222.594 182.973 228.425L181.208 229.094ZM265.006 306.446L265.541 304.627C271.519 306.379 277.684 307.703 283.876 308.573L283.608 310.445C277.323 309.562 271.064 308.225 264.993 306.433L265.006 306.446ZM174.949 207.135C173.772 200.929 173.023 194.564 172.782 188.225L174.668 188.158C174.922 194.403 175.644 200.662 176.795 206.787L174.936 207.148L174.949 207.135ZM287.393 310.913L287.594 309.027C289.733 309.268 291.9 309.428 294.026 309.576C298.119 309.816 302.264 309.87 306.33 309.709L306.397 311.595C302.264 311.742 298.052 311.702 293.906 311.461C291.753 311.341 289.56 311.154 287.38 310.926L287.393 310.913ZM172.675 184.427C172.649 181.431 172.716 178.395 172.903 175.4C173.264 169.047 174.12 162.708 175.404 156.53L177.263 156.917C175.992 163.002 175.163 169.261 174.802 175.507C174.628 178.462 174.548 181.458 174.588 184.413L172.702 184.427L172.675 184.427ZM310.208 311.394L310.088 309.509C316.32 309.081 322.565 308.211 328.637 306.874L329.038 308.72C322.873 310.07 316.521 310.966 310.208 311.394ZM176.219 152.798C177.704 146.633 179.643 140.522 182.024 134.664L183.775 135.373C181.448 141.15 179.523 147.168 178.078 153.24L176.246 152.798L176.219 152.798ZM332.769 307.85L332.301 306.018C338.346 304.494 344.337 302.514 350.101 300.121L350.824 301.859C344.966 304.293 338.894 306.299 332.756 307.837L332.769 307.85ZM183.495 131.16C186.036 125.383 189.031 119.712 192.415 114.35L194.006 115.353C190.676 120.635 187.707 126.225 185.22 131.922L183.495 131.16ZM354.327 300.361L353.538 298.636C359.222 296.082 364.759 293.059 370.014 289.676L371.044 291.267C365.708 294.704 360.091 297.753 354.327 300.361ZM194.501 111.14C198.032 105.898 201.977 100.856 206.256 96.1751L207.647 97.4589C203.434 102.073 199.543 107.034 196.052 112.21L194.488 111.153L194.501 111.14ZM374.214 289.141L373.144 287.59C378.293 284.046 383.214 280.114 387.788 275.861L389.072 277.252C384.444 281.558 379.429 285.557 374.214 289.141ZM208.864 93.38C209.359 92.8852 209.867 92.377 210.362 91.8822C214.347 87.8969 218.627 84.1523 223.08 80.7153L224.23 82.2132C219.844 85.5833 215.618 89.2744 211.686 93.2062C211.191 93.701 210.71 94.1824 210.215 94.6772L208.851 93.3666L208.864 93.38ZM391.827 274.604L390.489 273.267L391.185 272.571C395.371 268.385 399.302 263.865 402.86 259.158L404.371 260.294C400.76 265.082 396.775 269.683 392.535 273.922L391.84 274.617L391.827 274.604ZM227.239 79.9798L226.129 78.4418C231.265 74.724 236.721 71.3807 242.338 68.4652L243.207 70.1369C237.671 72.9988 232.294 76.3155 227.226 79.9664L227.239 79.9798ZM405.08 256.135C408.691 251.027 411.954 245.624 414.749 240.074L416.434 240.93C413.572 246.573 410.282 252.056 406.618 257.245L405.066 256.149L405.08 256.135ZM246.577 68.4786L245.761 66.7802C251.472 64.0386 257.423 61.6983 263.481 59.8393L264.03 61.6448C258.065 63.4903 252.194 65.7772 246.564 68.492L246.577 68.4786ZM416.407 236.677C419.055 231.033 421.288 225.135 423.08 219.144L424.899 219.679C423.094 225.764 420.807 231.742 418.132 237.466L416.42 236.663L416.407 236.677ZM267.627 60.5883L267.119 58.7695C273.217 57.0844 279.489 55.8407 285.788 55.0784L286.016 56.9641C279.81 57.713 273.632 58.9433 267.614 60.6016L267.627 60.5883ZM424.083 215.547C425.675 209.542 426.838 203.323 427.534 197.118L429.406 197.332C428.711 203.644 427.52 209.943 425.916 216.042L424.083 215.547ZM289.747 56.5495L289.573 54.6638C295.859 54.1021 302.264 53.9818 308.603 54.3295L308.496 56.2285C302.238 55.8808 295.925 55.9878 289.747 56.5495ZM427.881 193.347C427.962 192.33 428.029 191.327 428.095 190.298C428.403 185.069 428.376 179.773 428.055 174.584L429.941 174.463C430.289 179.733 430.302 185.095 429.981 190.418C429.914 191.448 429.847 192.477 429.767 193.494L427.881 193.347ZM312.241 56.496L312.401 54.6237C318.741 55.1586 325.053 56.175 331.205 57.6194L330.777 59.4649C324.718 58.0339 318.486 57.0443 312.254 56.5094L312.241 56.496ZM427.761 170.866C427.173 164.634 426.116 158.415 424.632 152.384L426.477 151.929C427.988 158.068 429.072 164.366 429.673 170.692L427.788 170.866L427.761 170.866ZM334.414 60.3743L334.909 58.5421C341.021 60.1871 347.079 62.2867 352.883 64.8277L352.134 66.5662C346.41 64.0787 340.446 61.9925 334.428 60.3877L334.414 60.3743ZM423.669 148.773C421.997 142.768 419.844 136.844 417.29 131.133L419.015 130.371C421.609 136.148 423.789 142.18 425.488 148.265L423.669 148.773ZM355.544 68.1042L356.347 66.3924C362.071 69.0938 367.634 72.2499 372.916 75.7672L371.873 77.3452C366.671 73.8815 361.175 70.7655 355.544 68.1042ZM415.725 127.723C413.01 122.12 409.854 116.663 406.337 111.488L407.901 110.431C411.486 115.674 414.682 121.224 417.437 126.894L415.725 127.723ZM374.949 79.485L376.046 77.9337C381.195 81.6114 386.129 85.6903 390.703 90.0768L389.393 91.4409C384.899 87.1079 380.031 83.0691 374.949 79.4582L374.949 79.485ZM404.157 108.425C400.493 103.37 396.427 98.5556 392.054 94.1022L393.391 92.7649C397.845 97.2985 401.964 102.193 405.695 107.315L404.157 108.425Z" fill="#3921D7"/>
<path d="M231.426 252.966C229.701 251.241 228.015 249.422 226.411 247.576L227.842 246.333C231.921 251.08 236.481 255.427 241.349 259.251L240.185 260.736C237.136 258.329 234.181 255.721 231.412 252.952L231.426 252.966ZM223.977 244.634C220.018 239.659 216.514 234.283 213.572 228.666L215.244 227.797C218.119 233.32 221.556 238.576 225.448 243.457L223.977 244.634ZM243.234 263.063L244.344 261.525C249.386 265.203 254.816 268.385 260.446 271.02L259.644 272.732C253.893 270.057 248.357 266.794 243.221 263.049L243.234 263.063ZM211.887 225.243C209.159 219.492 206.992 213.474 205.428 207.309L207.26 206.841C208.798 212.872 210.924 218.797 213.586 224.427L211.874 225.229L211.887 225.243ZM263.174 274.283L263.91 272.531C269.647 274.925 275.665 276.797 281.777 278.041L281.389 279.9C275.157 278.616 269.019 276.73 263.161 274.27L263.174 274.283ZM204.572 203.591C203.248 197.399 202.539 191.02 202.432 184.654L204.331 184.627C204.438 190.886 205.147 197.132 206.431 203.203L204.585 203.604L204.572 203.591ZM285.147 280.609L285.455 278.75C288.851 279.312 292.315 279.699 295.779 279.9C298.561 280.06 301.369 280.114 304.124 280.034L304.164 281.919C301.356 282 298.494 281.946 295.659 281.786C292.141 281.585 288.597 281.197 285.147 280.609ZM202.432 180.829C202.459 179.599 202.512 178.369 202.579 177.125C202.954 170.759 203.943 164.42 205.508 158.282L207.34 158.75C205.802 164.754 204.839 170.986 204.478 177.232C204.411 178.449 204.358 179.652 204.331 180.856L202.445 180.816L202.432 180.829ZM307.975 281.746L307.855 279.86C314.087 279.459 320.292 278.442 326.297 276.851L326.792 278.683C320.654 280.301 314.328 281.331 307.975 281.746ZM206.511 154.604C208.316 148.519 210.737 142.568 213.693 136.938L215.378 137.82C212.476 143.343 210.122 149.174 208.33 155.139L206.511 154.604ZM330.443 277.626L329.895 275.821C335.846 273.989 341.65 271.582 347.16 268.64L348.056 270.311C342.452 273.32 336.528 275.768 330.456 277.64L330.443 277.626ZM215.511 133.594C218.667 128.084 222.385 122.869 226.558 118.054L227.989 119.298C223.896 124.005 220.259 129.141 217.143 134.53L215.511 133.594ZM351.372 268.439L350.41 266.807C355.786 263.651 360.881 259.973 365.562 255.854L366.819 257.272C362.058 261.471 356.856 265.229 351.359 268.426L351.372 268.439ZM229.152 115.219C229.888 114.43 230.637 113.654 231.386 112.905C235.117 109.174 239.169 105.71 243.462 102.621L244.572 104.159C240.386 107.195 236.401 110.592 232.736 114.256C231.987 115.005 231.252 115.741 230.543 116.53L229.166 115.232L229.152 115.219ZM369.667 254.691L368.37 253.313C368.972 252.738 369.574 252.163 370.175 251.562C373.987 247.75 377.504 243.591 380.647 239.191L382.198 240.288C379.002 244.768 375.418 249.021 371.526 252.886C370.924 253.487 370.323 254.089 369.694 254.664L369.667 254.691ZM247.634 102.033L246.591 100.455C251.887 96.9241 257.531 93.9017 263.402 91.4544L264.124 93.1929C258.387 95.5868 252.823 98.5557 247.648 102.019L247.634 102.033ZM382.747 236.129C386.17 230.913 389.099 225.336 391.439 219.572L393.191 220.281C390.797 226.152 387.815 231.836 384.325 237.172L382.747 236.129ZM267.601 91.8288L266.946 90.0502C272.91 87.8302 279.102 86.1852 285.361 85.1688L285.669 87.0278C279.53 88.0308 273.445 89.649 267.601 91.8288ZM392.777 216.068C394.903 210.224 396.454 204.126 397.417 197.947L399.29 198.242C398.313 204.54 396.722 210.759 394.569 216.71L392.79 216.055L392.777 216.068ZM289.373 86.5062L289.146 84.6205C295.097 83.885 301.182 83.6844 307.227 84.0321L308.203 84.099L308.082 85.9846L307.12 85.9311C301.182 85.5834 295.231 85.784 289.386 86.4928L289.373 86.5062ZM397.912 194.243C398.126 192.371 398.3 190.458 398.407 188.586C398.661 184.24 398.621 179.84 398.3 175.533L400.186 175.386C400.507 179.773 400.547 184.253 400.293 188.68C400.172 190.592 400.012 192.518 399.784 194.43L397.912 194.216L397.912 194.243ZM311.814 86.319L312.014 84.4333C318.353 85.102 324.652 86.3992 330.697 88.2715L330.149 90.0769C324.211 88.2581 318.046 86.9876 311.827 86.3323L311.814 86.319ZM397.966 171.802C397.257 165.61 395.946 159.458 394.074 153.521L395.879 152.946C397.805 158.99 399.129 165.263 399.865 171.588L397.992 171.802L397.966 171.802ZM333.693 91.2404L334.321 89.4617C340.313 91.5747 346.13 94.2628 351.613 97.4992L350.65 99.1307C345.261 95.9612 339.564 93.3133 333.679 91.2538L333.693 91.2404ZM392.87 149.963C390.757 144.106 388.056 138.435 384.86 133.073L386.478 132.096C389.741 137.553 392.496 143.357 394.649 149.308L392.87 149.937L392.87 149.963ZM353.846 101.07L354.876 99.4784C360.226 102.902 365.267 106.874 369.855 111.274L368.544 112.638C364.037 108.318 359.089 104.44 353.846 101.07ZM382.88 129.89C379.47 124.661 375.552 119.753 371.205 115.273L372.569 113.962C376.996 118.522 380.995 123.537 384.472 128.86L382.88 129.89Z" fill="#3921D7"/>
<path d="M253.318 231.073C249.306 227.061 245.802 222.568 242.9 217.687L244.532 216.724C247.701 222.06 251.606 226.928 256.18 231.207L254.883 232.585C254.361 232.09 253.826 231.582 253.318 231.073ZM257.758 235.139L258.975 233.681C263.763 237.693 269.059 240.983 274.756 243.497L273.993 245.223C268.149 242.641 262.68 239.258 257.771 235.126L257.758 235.139ZM241.041 214.357C238.086 208.673 235.933 202.615 234.675 196.329L236.521 195.955C237.751 202.053 239.824 207.951 242.7 213.474L241.028 214.343L241.041 214.357ZM277.551 246.694L278.219 244.928C284.024 247.095 290.135 248.446 296.367 248.927L296.22 250.813C289.814 250.318 283.529 248.927 277.551 246.694ZM234.034 192.558C233.405 188.078 233.218 183.504 233.472 178.944C233.846 172.524 235.117 166.225 237.23 160.207L239.008 160.836C236.936 166.68 235.719 172.819 235.344 179.051C235.09 183.477 235.264 187.931 235.879 192.29L234.007 192.558L234.034 192.558ZM300.045 251L300.085 249.114C306.331 249.235 312.536 248.512 318.527 246.908L319.022 248.74C312.857 250.385 306.478 251.147 300.032 251.013L300.045 251ZM322.7 247.63L322.111 245.838C328.009 243.899 333.612 241.13 338.761 237.613L339.818 239.178C334.522 242.789 328.758 245.637 322.686 247.643L322.7 247.63ZM238.621 156.623C241.095 150.726 244.398 145.202 248.423 140.214L249.894 141.391C245.976 146.245 242.766 151.622 240.373 157.359L238.621 156.623ZM342.934 236.918L341.784 235.42C344.07 233.668 346.25 231.755 348.283 229.723C350.637 227.369 352.83 224.828 354.783 222.153L356.307 223.277C354.288 226.018 352.041 228.639 349.62 231.06C347.534 233.146 345.287 235.126 342.947 236.931L342.934 236.918ZM250.911 137.299C251.687 136.443 252.476 135.6 253.278 134.798C256.982 131.093 261.115 127.817 265.568 125.049L266.558 126.653C262.238 129.341 258.213 132.538 254.615 136.135C253.826 136.924 253.064 137.74 252.302 138.556L250.897 137.285L250.911 137.299ZM356.909 219.091C360.319 213.862 362.967 208.218 364.786 202.254L366.591 202.802C364.719 208.927 362.004 214.744 358.5 220.121L356.909 219.091ZM269.794 124.781L268.885 123.123C274.528 120.047 280.546 117.8 286.792 116.423L287.193 118.268C281.122 119.606 275.264 121.799 269.794 124.781ZM365.762 198.656C366.698 194.805 367.3 190.806 367.541 186.794C367.675 184.601 367.688 182.367 367.594 180.161L369.48 180.094C369.574 182.354 369.547 184.654 369.427 186.914C369.186 191.033 368.571 195.152 367.608 199.111L365.762 198.656ZM290.857 117.573L290.563 115.7C295.445 114.911 300.46 114.657 305.435 114.952C306.852 115.032 308.27 115.166 309.674 115.339L309.447 117.225C308.082 117.065 306.692 116.931 305.328 116.851C300.486 116.556 295.632 116.81 290.871 117.586L290.857 117.573ZM367.354 176.443C366.752 170.251 365.267 164.166 362.967 158.389L364.719 157.68C367.1 163.618 368.624 169.876 369.239 176.242L367.367 176.429L367.354 176.443ZM313.138 117.76L313.472 115.901C319.784 117.024 325.896 119.044 331.633 121.866L330.791 123.564C325.214 120.796 319.276 118.843 313.138 117.76ZM361.469 154.965C358.835 149.335 355.438 144.092 351.332 139.398L352.763 138.155C356.989 142.996 360.493 148.372 363.195 154.176L361.483 154.978L361.469 154.965ZM334.08 125.303L335.003 123.658C340.326 126.68 345.234 130.411 349.58 134.758L350.155 135.333L348.818 136.67L348.243 136.095C344.017 131.869 339.256 128.231 334.08 125.303Z" fill="#3921D7"/>
<path d="M272.669 211.695C270.997 210.024 269.473 208.205 268.122 206.266L269.66 205.182C273.217 210.237 277.951 214.41 283.381 217.272L282.498 218.957C278.874 217.045 275.571 214.624 272.656 211.709L272.669 211.695ZM266.036 203.002C262.853 197.386 261.021 191.006 260.78 184.56L262.666 184.494C262.906 190.645 264.645 196.717 267.681 202.08L266.036 203.002ZM286.002 220.589L286.711 218.837C290.656 220.455 294.842 221.404 299.162 221.658C301.034 221.765 302.933 221.739 304.805 221.578L304.979 223.464C303.027 223.624 301.034 223.664 299.068 223.544C294.548 223.277 290.161 222.287 286.029 220.589L286.002 220.589ZM260.793 180.695L260.807 180.522C261.181 174.076 263.12 167.723 266.397 162.2L268.028 163.163C264.859 168.526 263.067 174.41 262.706 180.655L260.807 180.709L260.793 180.695ZM308.804 222.956L308.47 221.097C314.501 219.987 320.278 217.419 325.16 213.634L326.31 215.132C321.188 219.104 315.13 221.792 308.804 222.956ZM268.537 158.964C269.78 157.265 271.158 155.647 272.656 154.149C275.745 151.06 279.289 148.506 283.167 146.553L284.023 148.238C280.319 150.097 276.948 152.531 273.993 155.486C272.562 156.917 271.238 158.455 270.074 160.074L268.55 158.95L268.537 158.964ZM329.265 212.605L327.968 211.227C328.262 210.933 328.583 210.639 328.878 210.344C332.93 206.292 336.073 201.304 337.985 195.941L339.764 196.57C337.758 202.213 334.454 207.442 330.215 211.682C329.907 211.989 329.586 212.31 329.265 212.605ZM287.366 146.74L286.671 144.975C292.141 142.849 297.891 141.939 303.789 142.3C304.418 142.34 305.059 142.394 305.675 142.447L305.474 144.333C304.872 144.266 304.27 144.226 303.669 144.186C298.038 143.852 292.542 144.721 287.34 146.74L287.366 146.74ZM339.055 192.411C339.643 190.057 340.018 187.623 340.151 185.189C340.365 181.444 340.044 177.727 339.215 174.116L341.061 173.688C341.93 177.472 342.278 181.378 342.05 185.296C341.903 187.85 341.516 190.405 340.9 192.865L339.068 192.397L339.055 192.411ZM309.138 144.895L309.513 143.049C315.838 144.32 321.843 147.141 326.885 151.194L325.708 152.665C320.907 148.8 315.17 146.112 309.152 144.908L309.138 144.895ZM338.212 170.572C336.313 164.928 333.077 159.713 328.851 155.486L328.463 155.099L329.8 153.761L330.175 154.136C334.615 158.576 338.025 164.046 340.004 169.957L338.212 170.545V170.572Z" fill="#3921D7"/>
<path d="M328.904 392.491C327.861 391.448 326.818 390.378 325.815 389.295L327.192 387.998C328.182 389.068 329.199 390.111 330.242 391.154C333.639 394.551 337.249 397.76 340.967 400.729L339.79 402.2C336.006 399.191 332.355 395.915 328.891 392.478L328.904 392.491ZM323.261 386.473C319.075 381.726 315.21 376.604 311.773 371.294L313.364 370.264C316.748 375.494 320.559 380.535 324.678 385.216L323.261 386.473ZM342.813 404.554L343.949 403.043C348.951 406.787 354.274 410.184 359.757 413.153L358.861 414.825C353.297 411.829 347.895 408.379 342.826 404.567L342.813 404.554ZM309.74 368.085C306.464 362.668 303.548 356.971 301.101 351.127L302.853 350.391C305.26 356.142 308.122 361.759 311.358 367.108L309.74 368.085ZM362.218 416.577L363.074 414.892C368.65 417.687 374.481 420.094 380.419 422.02L379.831 423.812C373.812 421.833 367.888 419.412 362.231 416.563L362.218 416.577ZM299.683 347.596C297.41 341.685 295.564 335.56 294.187 329.368L296.032 328.967C297.383 335.052 299.202 341.097 301.449 346.928L299.683 347.596ZM383.481 424.949L384.016 423.13C389.994 424.882 396.16 426.206 402.351 427.075L402.084 428.947C395.798 428.065 389.54 426.727 383.468 424.935L383.481 424.949ZM293.424 325.637C292.248 319.432 291.499 313.066 291.258 306.727L293.144 306.66C293.398 312.906 294.12 319.164 295.27 325.29L293.411 325.651L293.424 325.637ZM405.869 429.415L406.069 427.53C408.196 427.757 410.349 427.931 412.502 428.078C416.594 428.319 420.753 428.359 424.805 428.212L424.872 430.097C420.74 430.245 416.541 430.218 412.382 429.964C410.202 429.843 408.008 429.656 405.855 429.429L405.869 429.415ZM291.151 302.929C291.124 299.933 291.191 296.898 291.378 293.902C291.739 287.55 292.595 281.211 293.879 275.032L295.738 275.42C294.468 281.505 293.638 287.764 293.277 294.009C293.104 296.964 293.023 299.96 293.063 302.916L291.178 302.929L291.151 302.929ZM428.684 429.897L428.563 428.011C434.795 427.583 441.041 426.714 447.112 425.377L447.514 427.222C441.348 428.573 434.996 429.469 428.684 429.897ZM294.695 271.301C296.179 265.136 298.119 259.024 300.499 253.166L302.251 253.875C299.924 259.652 297.998 265.671 296.554 271.742L294.722 271.301L294.695 271.301ZM451.245 426.353L450.777 424.521C456.822 422.996 462.813 421.017 468.577 418.623L469.299 420.362C463.441 422.795 457.37 424.802 451.231 426.339L451.245 426.353ZM301.983 249.649C304.524 243.872 307.52 238.201 310.904 232.839L312.495 233.842C309.165 239.124 306.196 244.714 303.709 250.411L301.983 249.649ZM472.816 418.85L472.027 417.125C477.711 414.571 483.248 411.548 488.503 408.165L489.533 409.756C484.197 413.193 478.58 416.242 472.816 418.85ZM313.003 229.642C316.534 224.4 320.492 219.345 324.759 214.677L326.149 215.961C321.937 220.575 318.045 225.537 314.555 230.712L312.99 229.656L313.003 229.642ZM492.716 407.643L491.646 406.092C496.781 402.561 501.716 398.616 506.29 394.363L507.574 395.754C502.933 400.074 497.932 404.059 492.716 407.643ZM327.38 211.896C327.875 211.401 328.369 210.906 328.878 210.398C332.849 206.426 337.142 202.668 341.596 199.231L342.746 200.729C338.346 204.112 334.12 207.804 330.202 211.722C329.707 212.217 329.225 212.698 328.73 213.193L327.366 211.882L327.38 211.896ZM510.342 393.12L509.005 391.782L509.7 391.087C513.886 386.901 517.818 382.381 521.375 377.673L522.887 378.81C519.276 383.598 515.304 388.185 511.051 392.438L510.356 393.133L510.342 393.12ZM345.741 198.482L344.631 196.944C349.767 193.226 355.223 189.883 360.84 186.968L361.709 188.639C356.173 191.501 350.797 194.818 345.728 198.469L345.741 198.482ZM523.582 374.638C527.179 369.542 530.443 364.139 533.251 358.576L534.936 359.432C532.087 365.089 528.771 370.572 525.12 375.748L523.569 374.651L523.582 374.638ZM365.08 186.981L364.264 185.283C369.974 182.541 375.925 180.201 381.984 178.342L382.532 180.147C376.567 181.993 370.696 184.28 365.066 186.994L365.08 186.981ZM534.896 355.193C537.544 349.549 539.777 343.651 541.569 337.66L543.388 338.195C541.583 344.28 539.296 350.258 536.621 355.982L534.909 355.179L534.896 355.193ZM386.129 179.091L385.621 177.272C391.719 175.587 397.992 174.343 404.291 173.581L404.518 175.466C398.313 176.215 392.134 177.446 386.116 179.104L386.129 179.091ZM542.586 334.049C544.177 328.044 545.341 321.826 546.036 315.62L547.908 315.834C547.213 322.147 546.023 328.446 544.418 334.544L542.586 334.049ZM408.249 175.079L408.075 173.193C414.361 172.631 420.767 172.511 427.106 172.859L426.999 174.758C420.74 174.41 414.428 174.517 408.249 175.079ZM546.384 311.876C546.477 310.873 546.531 309.857 546.611 308.84C546.919 303.611 546.892 298.315 546.571 293.126L548.457 293.006C548.804 298.275 548.818 303.638 548.497 308.961C548.43 309.99 548.363 311.02 548.283 312.036L546.397 311.889L546.384 311.876ZM430.73 175.012L430.89 173.14C437.229 173.674 443.542 174.691 449.693 176.135L449.266 177.981C443.207 176.55 436.975 175.56 430.743 175.025L430.73 175.012ZM546.25 289.382C545.662 283.15 544.605 276.931 543.121 270.9L544.966 270.445C546.477 276.583 547.561 282.882 548.162 289.208L546.277 289.382L546.25 289.382ZM452.89 178.877L453.385 177.045C459.496 178.689 465.554 180.789 471.359 183.33L470.61 185.069C464.886 182.581 458.921 180.495 452.903 178.89L452.89 178.877ZM542.144 267.275C540.473 261.271 538.319 255.346 535.765 249.636L537.49 248.873C540.085 254.651 542.265 260.682 543.963 266.767L542.144 267.275ZM474.006 186.62L474.809 184.908C480.533 187.61 486.096 190.766 491.379 194.283L490.335 195.861C485.133 192.397 479.637 189.281 474.006 186.62ZM534.187 246.239C531.472 240.635 528.316 235.179 524.799 230.004L526.364 228.947C529.948 234.189 533.144 239.739 535.899 245.41L534.187 246.239ZM493.425 197.987L494.521 196.436C499.67 200.114 504.605 204.193 509.165 208.593L507.855 209.957C503.361 205.624 498.493 201.585 493.411 197.974L493.425 197.987ZM522.632 226.928C518.968 221.872 514.903 217.058 510.529 212.605L511.88 211.254C516.333 215.788 520.453 220.682 524.184 225.804L522.646 226.914L522.632 226.928Z" fill="#3921D7"/>
<path d="M349.928 371.468C348.203 369.743 346.518 367.924 344.913 366.079L346.344 364.835C350.423 369.556 354.97 373.915 359.865 377.767L358.701 379.251C355.652 376.844 352.683 374.223 349.928 371.468ZM342.479 363.136C338.521 358.162 335.017 352.785 332.075 347.169L333.747 346.299C336.622 351.822 340.059 357.078 343.95 361.96L342.479 363.136ZM361.737 381.565L362.847 380.027C367.889 383.705 373.319 386.888 378.949 389.522L378.146 391.234C372.396 388.559 366.859 385.296 361.724 381.552L361.737 381.565ZM330.39 343.745C327.662 337.994 325.495 331.976 323.93 325.811L325.763 325.343C327.3 331.374 329.427 337.299 332.088 342.929L330.376 343.732L330.39 343.745ZM381.664 392.772L382.399 391.02C388.136 393.414 394.154 395.286 400.266 396.53L399.878 398.389C393.646 397.105 387.508 395.219 381.65 392.759L381.664 392.772ZM323.061 322.08C321.737 315.888 321.028 309.509 320.921 303.143L322.82 303.116C322.927 309.375 323.636 315.621 324.92 321.692L323.074 322.093L323.061 322.08ZM403.636 399.098L403.944 397.239C407.341 397.8 410.804 398.188 414.268 398.389C417.05 398.549 419.858 398.603 422.613 398.523L422.653 400.408C419.845 400.489 416.983 400.435 414.148 400.275C410.631 400.074 407.1 399.673 403.636 399.098ZM320.921 299.318C320.948 298.088 321.002 296.858 321.068 295.614C321.443 289.248 322.433 282.909 323.997 276.771L325.829 277.239C324.291 283.243 323.329 289.475 322.968 295.721C322.901 296.938 322.847 298.141 322.82 299.345L320.935 299.305L320.921 299.318ZM426.465 400.234L426.344 398.349C432.576 397.948 438.782 396.931 444.786 395.34L445.281 397.172C439.143 398.79 432.817 399.82 426.465 400.234ZM325 273.093C326.806 267.008 329.226 261.057 332.182 255.427L333.867 256.309C330.965 261.832 328.611 267.663 326.819 273.628L325 273.093ZM448.932 396.115L448.384 394.31C454.335 392.478 460.139 390.071 465.649 387.128L466.545 388.8C460.942 391.809 455.017 394.256 448.946 396.129L448.932 396.115ZM334.001 252.083C337.17 246.587 340.875 241.358 345.047 236.543L346.478 237.787C342.386 242.494 338.748 247.63 335.632 253.019L334.001 252.083ZM469.862 386.928L468.899 385.296C474.275 382.14 479.37 378.462 484.051 374.343L485.308 375.761C480.547 379.96 475.345 383.718 469.862 386.928ZM347.615 233.708C348.35 232.919 349.099 232.143 349.848 231.394C353.579 227.663 357.632 224.199 361.924 221.11L363.034 222.648C358.849 225.684 354.863 229.081 351.199 232.745C350.45 233.494 349.714 234.23 349.006 235.019L347.628 233.721L347.615 233.708ZM488.13 373.18L486.833 371.802C487.434 371.227 488.036 370.652 488.638 370.05C492.463 366.226 495.98 362.067 499.109 357.68L500.661 358.777C497.478 363.243 493.88 367.483 489.989 371.374C489.387 371.976 488.785 372.578 488.157 373.153L488.13 373.18ZM366.11 220.508L365.067 218.93C370.363 215.4 376.007 212.377 381.878 209.93L382.6 211.669C376.863 214.062 371.299 217.031 366.124 220.495L366.11 220.508ZM501.209 354.591C504.633 349.375 507.562 343.798 509.902 338.034L511.654 338.743C509.247 344.628 506.278 350.298 502.787 355.634L501.209 354.591ZM386.077 210.304L385.422 208.526C391.386 206.306 397.578 204.661 403.837 203.644L404.144 205.503C398.006 206.506 391.921 208.125 386.077 210.304ZM511.253 334.544C513.379 328.7 514.93 322.601 515.893 316.423L517.765 316.717C516.789 323.016 515.198 329.235 513.045 335.186L511.266 334.531L511.253 334.544ZM407.849 204.982L407.622 203.096C413.573 202.361 419.658 202.16 425.703 202.508L426.679 202.575L426.558 204.46L425.596 204.407C419.658 204.059 413.693 204.246 407.862 204.968L407.849 204.982ZM516.388 312.718C516.602 310.846 516.776 308.934 516.883 307.061C517.137 302.715 517.11 298.329 516.776 294.009L518.662 293.862C518.996 298.262 519.023 302.728 518.768 307.155C518.648 309.067 518.488 310.993 518.26 312.906L516.388 312.692L516.388 312.718ZM430.276 204.808L430.477 202.922C436.816 203.591 443.101 204.875 449.16 206.76L448.611 208.566C442.673 206.747 436.508 205.477 430.303 204.808L430.276 204.808ZM516.428 290.291C515.719 284.099 514.409 277.947 512.536 272.01L514.342 271.435C516.268 277.479 517.592 283.751 518.327 290.077L516.455 290.291L516.428 290.291ZM452.155 209.729L452.784 207.951C458.775 210.064 464.593 212.752 470.076 215.988L469.113 217.62C463.723 214.45 458.026 211.802 452.142 209.743L452.155 209.729ZM511.333 268.452C509.22 262.595 506.532 256.911 503.322 251.562L504.94 250.585C508.203 256.042 510.958 261.846 513.112 267.797L511.333 268.425L511.333 268.452ZM472.309 219.559L473.339 217.967C478.688 221.391 483.717 225.35 488.317 229.763L487.007 231.127C482.5 226.807 477.538 222.916 472.309 219.559ZM501.33 248.392C497.919 243.163 494.001 238.255 489.654 233.775L491.019 232.464C495.445 237.025 499.444 242.04 502.921 247.362L501.33 248.392Z" fill="#3921D7"/>
<path d="M371.806 349.562C367.794 345.55 364.29 341.057 361.402 336.189L363.033 335.226C366.216 340.575 370.135 345.43 374.682 349.709L373.384 351.087C372.863 350.592 372.328 350.084 371.82 349.576L371.806 349.562ZM376.246 353.628L377.463 352.17C382.251 356.182 387.56 359.485 393.244 361.986L392.482 363.711C386.638 361.13 381.168 357.747 376.26 353.615L376.246 353.628ZM359.53 332.846C356.574 327.162 354.421 321.104 353.164 314.818L355.009 314.444C356.24 320.542 358.313 326.44 361.188 331.963L359.516 332.832L359.53 332.846ZM396.039 365.183L396.708 363.417C402.525 365.597 408.624 366.935 414.856 367.416L414.708 369.302C408.303 368.807 402.017 367.416 396.039 365.183ZM352.522 311.047C351.893 306.567 351.693 301.98 351.96 297.433C352.335 291.013 353.592 284.701 355.718 278.696L357.497 279.325C355.424 285.169 354.194 291.294 353.832 297.54C353.578 301.966 353.752 306.42 354.367 310.779L352.495 311.047L352.522 311.047ZM418.533 369.489L418.573 367.603C424.819 367.724 431.024 367.001 437.015 365.397L437.51 367.229C431.345 368.874 424.966 369.636 418.52 369.502L418.533 369.489ZM441.188 366.119L440.6 364.327C446.497 362.388 452.101 359.619 457.263 356.089L458.319 357.653C453.023 361.264 447.26 364.113 441.188 366.119ZM357.109 275.112C359.583 269.215 362.873 263.678 366.898 258.69L368.369 259.866C364.451 264.721 361.255 270.084 358.847 275.834L357.096 275.099L357.109 275.112ZM461.422 355.407L460.272 353.909C462.559 352.157 464.739 350.244 466.771 348.212C469.125 345.858 471.318 343.317 473.271 340.642L474.795 341.766C472.763 344.521 470.516 347.142 468.095 349.562C466.009 351.649 463.762 353.628 461.422 355.433L461.422 355.407ZM369.386 255.774C370.161 254.918 370.95 254.076 371.766 253.26C375.471 249.556 379.603 246.279 384.056 243.511L385.046 245.116C380.726 247.804 376.714 250.986 373.104 254.597C372.315 255.386 371.539 256.189 370.79 257.018L369.386 255.747L369.386 255.774ZM475.397 337.553C478.794 332.337 481.455 326.68 483.274 320.716L485.08 321.264C483.207 327.389 480.493 333.207 476.989 338.583L475.397 337.553ZM388.282 243.243L387.373 241.585C393.017 238.509 399.035 236.262 405.28 234.885L405.681 236.73C399.61 238.068 393.752 240.261 388.282 243.243ZM484.251 317.118C485.2 313.253 485.788 309.268 486.029 305.256C486.163 303.036 486.176 300.803 486.083 298.623L487.968 298.556C488.062 300.816 488.049 303.103 487.915 305.376C487.674 309.495 487.072 313.601 486.096 317.573L484.264 317.132L484.251 317.118ZM409.332 236.022L409.038 234.149C413.919 233.36 418.921 233.12 423.909 233.4C425.327 233.481 426.745 233.614 428.149 233.788L427.921 235.674C426.557 235.513 425.18 235.393 423.802 235.299C418.948 235.019 414.08 235.259 409.332 236.022ZM485.829 294.892C485.227 288.7 483.742 282.615 481.442 276.837L483.194 276.129C485.561 282.08 487.099 288.325 487.714 294.691L485.842 294.878L485.829 294.892ZM431.613 236.209L431.947 234.35C438.259 235.473 444.357 237.479 450.108 240.314L449.266 242.013C443.689 239.245 437.751 237.292 431.613 236.209ZM479.944 273.414C477.31 267.784 473.913 262.541 469.807 257.847L471.238 256.603C475.451 261.431 478.968 266.821 481.669 272.625L479.958 273.427L479.944 273.414ZM452.555 243.751L453.478 242.107C458.801 245.129 463.709 248.86 468.055 253.206L468.63 253.782L467.293 255.119L466.718 254.544C462.492 250.318 457.731 246.68 452.555 243.751Z" fill="#3921D7"/>
<path d="M391.159 330.184C389.487 328.513 387.963 326.694 386.612 324.755L388.15 323.671C391.707 328.727 396.441 332.899 401.871 335.761L400.988 337.446C397.364 335.534 394.048 333.1 391.145 330.198L391.159 330.184ZM384.526 321.491C381.343 315.875 379.511 309.495 379.27 303.049L381.155 302.983C381.396 309.134 383.135 315.206 386.171 320.569L384.526 321.491ZM404.492 339.078L405.201 337.326C409.146 338.944 413.332 339.893 417.652 340.147C419.537 340.268 421.436 340.241 423.295 340.067L423.469 341.953C421.517 342.113 419.524 342.153 417.558 342.033C413.051 341.779 408.651 340.776 404.519 339.078L404.492 339.078ZM379.283 299.185L379.297 299.037C379.684 292.471 381.557 286.292 384.887 280.689L386.518 281.652C383.349 287.015 381.557 292.899 381.196 299.144L379.297 299.198L379.283 299.185ZM427.294 341.445L426.96 339.586C432.991 338.476 438.768 335.908 443.65 332.123L444.8 333.621C439.691 337.58 433.62 340.281 427.294 341.445ZM387.013 277.466C388.257 275.768 389.634 274.149 391.132 272.652C394.221 269.562 397.752 267.021 401.644 265.055L402.5 266.74C398.795 268.599 395.412 271.047 392.469 273.989C391.052 275.406 389.715 276.958 388.551 278.576L387.026 277.453L387.013 277.466ZM447.742 331.107L446.445 329.73C446.739 329.435 447.06 329.141 447.354 328.847C451.406 324.795 454.562 319.82 456.475 314.43L458.254 315.059C456.248 320.702 452.944 325.931 448.692 330.184C448.384 330.492 448.063 330.813 447.742 331.107ZM405.843 265.243L405.147 263.477C410.617 261.351 416.368 260.442 422.279 260.789C422.907 260.829 423.549 260.883 424.165 260.936L423.964 262.822C423.362 262.755 422.76 262.715 422.159 262.675C416.528 262.341 411.032 263.21 405.83 265.229L405.843 265.243ZM457.531 310.913C458.12 308.559 458.481 306.139 458.628 303.691C458.855 299.96 458.521 296.229 457.692 292.618L459.537 292.19C460.407 295.975 460.754 299.88 460.527 303.798C460.38 306.353 459.992 308.907 459.377 311.368L457.545 310.9L457.531 310.913ZM427.615 263.397L427.989 261.552C434.315 262.822 440.32 265.644 445.362 269.696L444.185 271.167C439.384 267.302 433.66 264.627 427.628 263.41L427.615 263.397ZM456.689 289.074C454.79 283.431 451.553 278.215 447.327 273.989L446.94 273.601L448.277 272.264L448.665 272.652C453.105 277.092 456.515 282.561 458.494 288.472L456.689 289.074Z" fill="#3921D7"/>
<path d="M91.9271 392.491C90.884 391.448 89.8409 390.378 88.8379 389.295L90.2153 387.998C94.4948 392.571 99.1221 396.851 103.99 400.729L102.813 402.2C99.0284 399.191 95.3641 395.901 91.9137 392.478L91.9271 392.491ZM86.2835 386.473C82.0976 381.726 78.2327 376.604 74.7957 371.294L76.3871 370.265C79.7706 375.494 83.5821 380.535 87.7011 385.216L86.2835 386.473ZM105.836 404.554L106.972 403.043C111.974 406.787 117.297 410.184 122.78 413.153L121.884 414.825C116.32 411.829 110.917 408.379 105.849 404.567L105.836 404.554ZM72.7763 368.071C69.4998 362.655 66.5844 356.958 64.1371 351.114L65.889 350.378C68.2962 356.129 71.1715 361.759 74.3945 367.095L72.7763 368.071ZM125.254 416.563L126.11 414.878C131.686 417.673 137.517 420.081 143.455 422.006L142.867 423.798C136.849 421.819 130.924 419.399 125.267 416.55L125.254 416.563ZM62.7195 347.583C60.446 341.672 58.6004 335.547 57.223 329.355L59.0685 328.954C60.4192 335.039 62.238 341.084 64.4848 346.914L62.7195 347.583ZM146.518 424.935L147.053 423.116C153.031 424.868 159.196 426.192 165.388 427.062L165.12 428.934C158.835 428.051 152.576 426.714 146.504 424.922L146.518 424.935ZM56.4607 325.624C55.2838 319.419 54.5349 313.053 54.2942 306.714L56.1798 306.647C56.4339 312.892 57.1561 319.151 58.3062 325.276L56.4473 325.637L56.4607 325.624ZM168.905 429.402L169.105 427.516C171.245 427.757 173.412 427.918 175.538 428.065C179.63 428.305 183.776 428.359 187.842 428.198L187.909 430.084C183.776 430.231 179.564 430.191 175.418 429.95C173.265 429.83 171.071 429.643 168.891 429.415L168.905 429.402ZM54.1872 302.916C54.1604 299.92 54.2273 296.884 54.4145 293.889C54.7756 287.536 55.6315 281.197 56.9154 275.019L58.7743 275.406C57.5038 281.491 56.6747 287.75 56.3136 293.996C56.1397 296.951 56.0595 299.947 56.0996 302.902L54.2139 302.916L54.1872 302.916ZM191.72 429.883L191.6 427.998C197.832 427.57 204.077 426.701 210.149 425.363L210.55 427.209C204.385 428.559 198.032 429.456 191.72 429.883ZM57.7311 271.287C59.2156 265.122 61.1548 259.011 63.5352 253.153L65.2872 253.862C62.9602 259.639 61.0344 265.657 59.5901 271.729L57.7579 271.287L57.7311 271.287ZM214.281 426.339L213.813 424.507C219.858 422.983 225.849 421.003 231.613 418.61L232.335 420.348C226.478 422.782 220.406 424.788 214.268 426.326L214.281 426.339ZM65.0063 249.649C67.5473 243.872 70.5429 238.201 73.9264 232.839L75.5179 233.842C72.1879 239.124 69.219 244.714 66.7315 250.411L65.0063 249.649ZM235.839 418.85L235.05 417.125C240.734 414.571 246.27 411.548 251.526 408.165L252.556 409.756C247.22 413.193 241.603 416.243 235.839 418.85ZM76.0127 229.629C79.5433 224.387 83.4885 219.345 87.768 214.664L89.1588 215.948C84.9462 220.562 81.0545 225.523 77.564 230.699L75.9993 229.642L76.0127 229.629ZM255.725 407.63L254.656 406.079C259.804 402.535 264.726 398.603 269.299 394.35L270.583 395.741C265.956 400.047 260.941 404.046 255.725 407.63ZM90.3758 211.869C90.8706 211.374 91.3788 210.866 91.8736 210.371C95.8589 206.386 100.138 202.641 104.592 199.204L105.742 200.702C101.355 204.072 97.1294 207.763 93.1976 211.695C92.7028 212.19 92.2213 212.672 91.7265 213.166L90.3624 211.856L90.3758 211.869ZM273.338 393.093L272.001 391.756L272.696 391.06C276.882 386.874 280.814 382.354 284.371 377.647L285.883 378.783C282.272 383.571 278.286 388.172 274.047 392.411L273.352 393.106L273.338 393.093ZM108.738 198.482L107.628 196.944C112.763 193.226 118.219 189.883 123.836 186.968L124.705 188.639C119.169 191.501 113.793 194.818 108.724 198.469L108.738 198.482ZM286.578 374.638C290.189 369.529 293.452 364.126 296.247 358.576L297.932 359.432C295.07 365.076 291.78 370.559 288.116 375.748L286.565 374.651L286.578 374.638ZM128.076 186.981L127.26 185.283C132.97 182.541 138.921 180.201 144.98 178.342L145.528 180.147C139.563 181.993 133.692 184.28 128.062 186.994L128.076 186.981ZM297.905 355.179C300.553 349.536 302.787 343.638 304.579 337.647L306.398 338.182C304.592 344.266 302.305 350.244 299.631 355.968L297.919 355.166L297.905 355.179ZM149.139 179.077L148.631 177.259C154.729 175.573 161.001 174.33 167.3 173.567L167.527 175.453C161.322 176.202 155.144 177.432 149.125 179.091L149.139 179.077ZM305.595 334.036C307.187 328.031 308.35 321.812 309.045 315.607L310.918 315.821C310.222 322.133 309.032 328.432 307.427 334.531L305.595 334.036ZM171.272 175.052L171.098 173.166C177.384 172.605 183.789 172.484 190.129 172.832L190.022 174.731C183.763 174.383 177.45 174.49 171.272 175.052ZM309.407 311.849C309.487 310.833 309.554 309.83 309.621 308.8C309.928 303.571 309.901 298.275 309.58 293.086L311.466 292.966C311.814 298.235 311.827 303.598 311.506 308.92C311.439 309.95 311.372 310.98 311.292 311.996L309.407 311.849ZM193.753 174.985L193.913 173.113C200.252 173.648 206.565 174.664 212.716 176.108L212.288 177.954C206.23 176.523 199.998 175.533 193.766 174.998L193.753 174.985ZM309.273 289.355C308.684 283.123 307.628 276.904 306.143 270.873L307.989 270.418C309.5 276.557 310.583 282.855 311.185 289.181L309.3 289.355L309.273 289.355ZM215.913 178.85L216.407 177.018C222.519 178.663 228.577 180.762 234.381 183.303L233.632 185.042C227.909 182.554 221.944 180.468 215.926 178.863L215.913 178.85ZM305.167 267.249C303.495 261.244 301.342 255.32 298.788 249.609L300.513 248.847C303.108 254.624 305.288 260.656 306.986 266.74L305.167 267.249ZM237.029 186.593L237.832 184.881C243.556 187.583 249.119 190.739 254.401 194.256L253.358 195.834C248.156 192.371 242.66 189.255 237.029 186.593ZM297.21 246.212C294.495 240.609 291.339 235.152 287.822 229.977L289.386 228.92C292.971 234.163 296.167 239.713 298.922 245.383L297.21 246.212ZM256.448 197.961L257.544 196.409C262.693 200.087 267.628 204.166 272.188 208.566L270.878 209.93C266.384 205.597 261.516 201.558 256.434 197.947L256.448 197.961ZM285.655 226.901C281.991 221.846 277.925 217.031 273.552 212.578L274.89 211.241C279.343 215.774 283.462 220.669 287.193 225.791L285.655 226.901Z" fill="#3921D7"/>
<path d="M112.95 371.468C111.225 369.743 109.54 367.924 107.935 366.079L109.366 364.835C113.445 369.556 117.992 373.915 122.887 377.767L121.723 379.251C118.674 376.844 115.705 374.223 112.95 371.468ZM105.501 363.136C101.543 358.162 98.0388 352.785 95.0966 347.169L96.7683 346.299C99.6436 351.822 103.081 357.078 106.972 361.96L105.501 363.136ZM124.759 381.565L125.869 380.027C130.911 383.705 136.34 386.888 141.971 389.522L141.168 391.234C135.418 388.559 129.881 385.296 124.746 381.552L124.759 381.565ZM93.4116 343.745C90.6834 337.994 88.5169 331.976 86.9522 325.811L88.7844 325.343C90.3223 331.374 92.4487 337.299 95.11 342.929L93.3982 343.732L93.4116 343.745ZM144.699 392.785L145.434 391.033C151.172 393.427 157.19 395.3 163.301 396.543L162.913 398.402C156.681 397.118 150.543 395.233 144.685 392.772L144.699 392.785ZM86.0963 322.093C84.7723 315.901 84.0635 309.522 83.9565 303.156L85.8555 303.13C85.9625 309.388 86.6713 315.634 87.9552 321.705L86.1096 322.107L86.0963 322.093ZM166.671 399.111L166.979 397.252C170.349 397.814 173.84 398.202 177.303 398.402C180.058 398.563 182.867 398.616 185.648 398.536L185.689 400.422C182.853 400.502 179.991 400.448 177.183 400.288C173.652 400.074 170.108 399.686 166.671 399.111ZM83.9565 299.332C83.9833 298.101 84.0368 296.871 84.1036 295.627C84.4781 289.261 85.4677 282.922 87.0324 276.784L88.8646 277.252C87.3266 283.257 86.3637 289.489 86.0027 295.734C85.9358 296.951 85.8823 298.155 85.8556 299.358L83.9699 299.318L83.9565 299.332ZM189.5 400.248L189.38 398.362C195.612 397.961 201.817 396.945 207.822 395.353L208.316 397.185C202.178 398.803 195.852 399.833 189.5 400.248ZM88.0354 273.106C89.8409 267.021 92.2614 261.07 95.217 255.44L96.902 256.323C94 261.846 91.6463 267.677 89.8542 273.641L88.0354 273.106ZM211.967 396.129L211.419 394.323C217.37 392.491 223.174 390.084 228.684 387.142L229.58 388.813C223.977 391.823 218.052 394.27 211.981 396.142L211.967 396.129ZM97.0358 252.096C100.192 246.587 103.923 241.358 108.082 236.557L109.513 237.8C105.421 242.508 101.783 247.643 98.6673 253.033L97.0358 252.096ZM232.897 386.941L231.934 385.31C237.31 382.154 242.405 378.476 247.086 374.357L248.343 375.774C243.582 379.974 238.38 383.732 232.897 386.941ZM110.65 233.721C111.386 232.932 112.134 232.157 112.897 231.394C116.628 227.663 120.68 224.199 124.96 221.124L126.07 222.661C121.884 225.697 117.898 229.094 114.234 232.758C113.485 233.507 112.736 234.256 112.041 235.032L110.663 233.735L110.65 233.721ZM251.165 373.193L249.868 371.816C250.47 371.241 251.071 370.666 251.673 370.064C255.485 366.252 259.015 362.08 262.145 357.693L263.696 358.79C260.5 363.27 256.929 367.51 253.037 371.401C252.436 372.003 251.834 372.605 251.205 373.18L251.165 373.193ZM129.145 220.522L128.102 218.944C133.398 215.413 139.042 212.391 144.913 209.943L145.635 211.682C139.898 214.076 134.334 217.045 129.159 220.508L129.145 220.522ZM264.258 354.618C267.681 349.402 270.61 343.825 272.95 338.061L274.702 338.77C272.308 344.641 269.326 350.325 265.836 355.661L264.258 354.618ZM149.125 210.331L148.47 208.552C154.435 206.332 160.627 204.688 166.885 203.671L167.193 205.53C161.055 206.533 154.97 208.151 149.125 210.331ZM274.301 334.571C276.428 328.726 277.979 322.628 278.942 316.45L280.814 316.744C279.838 323.043 278.246 329.261 276.093 335.213L274.315 334.557L274.301 334.571ZM170.897 205.008L170.67 203.123C176.621 202.387 182.706 202.187 188.751 202.534L189.727 202.601L189.607 204.487L188.644 204.433C182.706 204.086 176.755 204.286 170.911 204.995L170.897 205.008ZM279.437 312.745C279.651 310.873 279.811 308.974 279.931 307.088C280.185 302.742 280.145 298.342 279.824 294.036L281.71 293.889C282.044 298.288 282.071 302.755 281.804 307.195C281.683 309.108 281.523 311.033 281.295 312.946L279.41 312.718L279.437 312.745ZM193.325 204.835L193.525 202.949C199.864 203.618 206.163 204.915 212.208 206.787L211.66 208.593C205.722 206.774 199.557 205.503 193.338 204.848L193.325 204.835ZM279.477 290.318C278.768 284.126 277.457 277.974 275.585 272.036L277.39 271.461C279.316 277.506 280.64 283.778 281.376 290.104L279.503 290.318L279.477 290.318ZM215.204 209.756L215.832 207.977C221.824 210.09 227.641 212.778 233.124 216.015L232.161 217.646C226.772 214.477 221.075 211.829 215.19 209.769L215.204 209.756ZM274.381 268.479C272.268 262.621 269.567 256.951 266.371 251.588L267.989 250.612C271.252 256.068 274.007 261.872 276.16 267.824L274.381 268.452L274.381 268.479ZM235.358 219.586L236.387 217.994C241.737 221.418 246.779 225.39 251.366 229.79L250.055 231.154C245.548 226.834 240.6 222.956 235.358 219.586ZM264.378 248.419C260.968 243.19 257.049 238.282 252.703 233.802L254.067 232.491C258.494 237.051 262.492 242.066 265.969 247.389L264.378 248.419Z" fill="#3921D7"/>
<path d="M134.814 349.576C130.802 345.564 127.298 341.07 124.396 336.189L126.028 335.226C129.197 340.562 133.129 345.457 137.676 349.709L136.379 351.087C135.857 350.592 135.322 350.084 134.814 349.576ZM139.254 353.641L140.471 352.184C145.259 356.196 150.555 359.485 156.252 362L155.49 363.725C149.645 361.144 144.176 357.76 139.268 353.628L139.254 353.641ZM122.537 332.859C119.582 327.175 117.429 321.117 116.172 314.831L118.017 314.457C119.247 320.555 121.32 326.453 124.196 331.976L122.524 332.846L122.537 332.859ZM159.047 365.196L159.716 363.431C165.52 365.597 171.631 366.948 177.863 367.429L177.716 369.315C171.31 368.82 165.025 367.429 159.047 365.196ZM115.53 311.06C114.901 306.58 114.714 302.006 114.968 297.446C115.342 291.027 116.613 284.728 118.726 278.71L120.505 279.338C118.432 285.182 117.215 291.321 116.84 297.553C116.586 301.98 116.76 306.433 117.375 310.793L115.503 311.06L115.53 311.06ZM181.541 369.502L181.581 367.617C187.827 367.764 194.032 367.015 200.023 365.41L200.518 367.242C194.353 368.887 187.96 369.663 181.528 369.516L181.541 369.502ZM204.196 366.132L203.607 364.34C209.505 362.401 215.108 359.633 220.257 356.115L221.314 357.68C216.018 361.291 210.254 364.139 204.182 366.145L204.196 366.132ZM120.13 275.112C122.604 269.215 125.881 263.691 129.92 258.69L131.391 259.866C127.472 264.721 124.263 270.097 121.869 275.834L120.117 275.099L120.13 275.112ZM224.443 355.407L223.293 353.909C225.58 352.157 227.76 350.244 229.793 348.212C232.146 345.858 234.34 343.317 236.292 340.642L237.817 341.766C235.784 344.521 233.537 347.142 231.13 349.549C229.044 351.635 226.797 353.615 224.457 355.42L224.443 355.407ZM132.42 255.788C133.196 254.932 133.985 254.089 134.787 253.287C138.492 249.582 142.624 246.306 147.078 243.537L148.067 245.142C143.748 247.83 139.722 251.027 136.125 254.624C135.336 255.413 134.573 256.229 133.811 257.045L132.407 255.774L132.42 255.788ZM238.418 337.58C241.829 332.351 244.477 326.707 246.295 320.743L248.101 321.291C246.242 327.402 243.514 333.233 240.01 338.609L238.418 337.58ZM151.304 243.27L150.394 241.612C156.038 238.536 162.056 236.289 168.301 234.912L168.703 236.757C162.631 238.094 156.773 240.288 151.304 243.27ZM247.272 317.145C248.221 313.28 248.81 309.295 249.05 305.283C249.184 303.09 249.197 300.856 249.104 298.65L250.99 298.583C251.083 300.843 251.056 303.143 250.936 305.403C250.695 309.522 250.08 313.641 249.117 317.6L247.272 317.145ZM172.354 236.048L172.059 234.176C176.941 233.387 181.942 233.146 186.931 233.427C188.348 233.507 189.779 233.628 191.17 233.815L190.943 235.701C189.579 235.54 188.201 235.42 186.824 235.326C181.969 235.045 177.101 235.286 172.367 236.062L172.354 236.048ZM248.836 294.932C248.235 288.74 246.75 282.655 244.45 276.878L246.202 276.169C248.582 282.107 250.107 288.365 250.722 294.731L248.85 294.918L248.836 294.932ZM194.62 236.249L194.955 234.39C201.267 235.513 207.379 237.533 213.116 240.355L212.273 242.053C206.697 239.285 200.759 237.332 194.62 236.249ZM242.952 273.454C240.317 267.824 236.907 262.568 232.815 257.887L234.246 256.643C238.459 261.471 241.976 266.861 244.677 272.665L242.965 273.467L242.952 273.454ZM215.563 243.792L216.486 242.147C221.809 245.169 226.717 248.9 231.063 253.247L231.638 253.822L230.301 255.159L229.726 254.584C225.5 250.358 220.739 246.72 215.563 243.792Z" fill="#3921D7"/>
<path d="M154.181 330.184C152.509 328.513 150.984 326.694 149.62 324.741L151.158 323.658C154.716 328.713 159.45 332.886 164.879 335.748L163.997 337.433C160.373 335.52 157.069 333.1 154.154 330.184L154.181 330.184ZM147.547 321.491C144.364 315.875 142.532 309.495 142.292 303.049L144.177 302.983C144.418 309.134 146.157 315.206 149.192 320.569L147.547 321.491ZM167.514 339.078L168.223 337.326C172.168 338.944 176.354 339.893 180.673 340.147C182.546 340.254 184.445 340.228 186.317 340.067L186.491 341.953C184.538 342.113 182.546 342.153 180.58 342.033C176.06 341.766 171.673 340.776 167.541 339.078L167.514 339.078ZM142.305 299.184L142.318 299.011C142.693 292.565 144.632 286.212 147.908 280.689L149.54 281.652C146.371 287.015 144.578 292.899 144.217 299.144L142.318 299.198L142.305 299.184ZM190.316 341.445L189.981 339.586C196.013 338.476 201.79 335.908 206.671 332.123L207.822 333.621C202.7 337.593 196.641 340.281 190.316 341.445ZM150.048 277.453C151.292 275.754 152.669 274.136 154.167 272.638C157.257 269.549 160.8 266.995 164.679 265.042L165.535 266.727C161.83 268.586 158.46 271.02 155.505 273.975C154.074 275.406 152.75 276.944 151.586 278.563L150.062 277.439L150.048 277.453ZM210.777 331.094L209.48 329.716C209.774 329.422 210.095 329.128 210.389 328.833C214.441 324.781 217.584 319.793 219.497 314.43L221.275 315.059C219.269 320.702 215.966 325.931 211.727 330.171C211.419 330.478 211.098 330.799 210.777 331.094ZM168.878 265.229L168.183 263.464C173.652 261.338 179.403 260.428 185.301 260.789C185.929 260.829 186.571 260.883 187.186 260.936L186.986 262.822C186.384 262.755 185.782 262.715 185.18 262.675C179.55 262.341 174.054 263.21 168.851 265.229L168.878 265.229ZM220.567 310.9C221.155 308.546 221.529 306.112 221.663 303.678C221.891 299.947 221.57 296.229 220.727 292.605L222.573 292.177C223.442 295.961 223.79 299.867 223.562 303.785C223.415 306.339 223.027 308.894 222.412 311.354L220.58 310.886L220.567 310.9ZM190.65 263.384L191.025 261.538C197.35 262.809 203.355 265.63 208.397 269.683L207.22 271.154C202.419 267.289 196.695 264.614 190.663 263.397L190.65 263.384ZM219.724 289.061C217.825 283.417 214.589 278.201 210.363 273.975L209.975 273.588L211.312 272.25L211.7 272.638C216.127 277.065 219.523 282.548 221.516 288.446L219.711 289.047L219.724 289.061Z" fill="#3921D7"/>
<path d="M210.414 510.98C209.371 509.937 208.327 508.867 207.324 507.784L208.702 506.487C209.692 507.557 210.708 508.6 211.751 509.643C215.148 513.04 218.759 516.249 222.477 519.218L221.3 520.689C217.515 517.68 213.864 514.404 210.4 510.967L210.414 510.98ZM204.77 504.962C200.584 500.215 196.719 495.092 193.282 489.783L194.874 488.753C198.257 493.982 202.069 499.024 206.188 503.705L204.77 504.962ZM224.322 523.043L225.459 521.532C230.461 525.276 235.783 528.673 241.266 531.642L240.37 533.314C234.807 530.318 229.404 526.868 224.336 523.056L224.322 523.043ZM191.25 486.574C187.973 481.157 185.058 475.46 182.61 469.616L184.362 468.88C186.769 474.631 189.631 480.248 192.868 485.597L191.25 486.574ZM243.727 535.066L244.583 533.381C250.16 536.176 255.991 538.583 261.928 540.509L261.34 542.301C255.322 540.322 249.397 537.901 243.74 535.052L243.727 535.066ZM181.193 466.085C178.919 460.174 177.074 454.049 175.696 447.857L177.542 447.456C178.892 453.541 180.711 459.586 182.958 465.417L181.193 466.085ZM264.991 543.438L265.526 541.619C271.504 543.371 277.669 544.695 283.861 545.564L283.593 547.436C277.308 546.554 271.049 545.216 264.978 543.424L264.991 543.438ZM174.934 444.126C173.757 437.921 173.008 431.555 172.767 425.216L174.653 425.149C174.907 431.395 175.629 437.653 176.779 443.778L174.921 444.14L174.934 444.126ZM287.378 547.904L287.579 546.019C289.705 546.246 291.858 546.42 294.011 546.567C298.104 546.808 302.263 546.848 306.315 546.701L306.382 548.586C302.249 548.733 298.05 548.707 293.891 548.453C291.711 548.332 289.518 548.145 287.365 547.918L287.378 547.904ZM172.66 421.418C172.634 418.422 172.701 415.387 172.888 412.391C173.249 406.039 174.105 399.699 175.389 393.521L177.248 393.909C175.977 399.994 175.148 406.252 174.787 412.498C174.613 415.453 174.533 418.449 174.573 421.405L172.687 421.418L172.66 421.418ZM310.193 548.386L310.073 546.5C316.305 546.072 322.55 545.203 328.622 543.866L329.023 545.711C322.858 547.062 316.506 547.958 310.193 548.386ZM176.204 389.79C177.689 383.625 179.628 377.513 182.008 371.655L183.76 372.364C181.433 378.141 179.508 384.16 178.063 390.231L176.231 389.79L176.204 389.79ZM332.754 544.842L332.286 543.01C338.331 541.485 344.322 539.506 350.086 537.112L350.808 538.85C344.951 541.284 338.879 543.29 332.741 544.828L332.754 544.842ZM183.493 368.138C186.034 362.361 189.03 356.69 192.413 351.328L194.004 352.331C190.675 357.613 187.706 363.203 185.218 368.9L183.493 368.138ZM354.326 537.339L353.537 535.614C359.22 533.06 364.757 530.037 370.013 526.654L371.043 528.245C365.707 531.682 360.09 534.731 354.326 537.339ZM194.513 348.131C198.043 342.889 202.002 337.834 206.268 333.166L207.659 334.45C203.446 339.064 199.554 344.026 196.064 349.201L194.499 348.145L194.513 348.131ZM374.225 526.132L373.156 524.581C378.291 521.05 383.226 517.105 387.799 512.852L389.083 514.243C384.443 518.563 379.441 522.548 374.225 526.132ZM208.889 330.385C209.384 329.89 209.879 329.395 210.387 328.887C214.359 324.915 218.652 321.157 223.105 317.72L224.255 319.218C219.855 322.601 215.629 326.292 211.711 330.211C211.216 330.706 210.735 331.187 210.24 331.682L208.876 330.371L208.889 330.385ZM391.852 511.609L390.514 510.271L391.21 509.576C395.396 505.39 399.327 500.87 402.885 496.162L404.396 497.299C400.785 502.087 396.813 506.674 392.56 510.927L391.865 511.622L391.852 511.609ZM227.251 316.971L226.141 315.433C231.276 311.715 236.733 308.372 242.35 305.457L243.219 307.128C237.682 309.99 232.306 313.307 227.238 316.958L227.251 316.971ZM405.091 493.127C408.689 488.031 411.952 482.628 414.76 477.065L416.445 477.921C413.597 483.578 410.28 489.061 406.629 494.237L405.078 493.14L405.091 493.127ZM246.589 305.47L245.773 303.772C251.484 301.03 257.435 298.69 263.493 296.831L264.041 298.636C258.077 300.482 252.206 302.769 246.576 305.483L246.589 305.47ZM416.405 473.682C419.053 468.038 421.287 462.14 423.079 456.149L424.898 456.684C423.092 462.769 420.805 468.747 418.131 474.471L416.419 473.668L416.405 473.682ZM267.639 297.58L267.131 295.761C273.229 294.076 279.501 292.832 285.8 292.07L286.027 293.955C279.822 294.704 273.644 295.935 267.625 297.593L267.639 297.58ZM424.095 452.538C425.687 446.533 426.85 440.315 427.545 434.109L429.418 434.323C428.722 440.636 427.532 446.935 425.927 453.033L424.095 452.538ZM289.759 293.568L289.585 291.682C295.87 291.12 302.276 291 308.615 291.348L308.508 293.247C302.249 292.899 295.937 293.006 289.759 293.568ZM427.893 430.365C427.987 429.362 428.04 428.345 428.121 427.329C428.428 422.1 428.401 416.804 428.08 411.615L429.966 411.495C430.314 416.764 430.327 422.127 430.006 427.449C429.939 428.479 429.872 429.509 429.792 430.525L427.907 430.378L427.893 430.365ZM312.239 293.501L312.4 291.628C318.739 292.163 325.051 293.18 331.203 294.624L330.775 296.47C324.717 295.039 318.485 294.049 312.253 293.514L312.239 293.501ZM427.759 407.871C427.171 401.639 426.114 395.42 424.63 389.389L426.476 388.934C427.987 395.072 429.07 401.371 429.672 407.697L427.786 407.871L427.759 407.871ZM334.399 297.366L334.894 295.534C341.006 297.178 347.064 299.278 352.868 301.819L352.119 303.558C346.395 301.07 340.431 298.984 334.413 297.379L334.399 297.366ZM423.654 385.764C421.982 379.76 419.829 373.835 417.275 368.125L419 367.362C421.594 373.14 423.774 379.171 425.473 385.256L423.654 385.764ZM355.516 305.109L356.318 303.397C362.042 306.099 367.606 309.255 372.888 312.772L371.845 314.35C366.643 310.886 361.146 307.77 355.516 305.109ZM415.697 364.728C412.982 359.124 409.826 353.668 406.308 348.492L407.873 347.436C411.457 352.678 414.653 358.228 417.408 363.899L415.697 364.728ZM374.934 316.476L376.031 314.925C381.18 318.603 386.114 322.682 390.675 327.082L389.364 328.446C384.871 324.113 380.003 320.074 374.921 316.463L374.934 316.476ZM404.142 345.417C400.478 340.361 396.412 335.547 392.039 331.094L393.376 329.756C397.83 334.29 401.949 339.185 405.68 344.307L404.142 345.417Z" fill="#3921D7"/>
<path d="M231.437 489.957C229.712 488.232 228.027 486.413 226.422 484.568L227.853 483.324C231.932 488.045 236.492 492.418 241.373 496.256L240.21 497.74C237.161 495.333 234.205 492.725 231.437 489.957ZM223.988 481.625C220.029 476.65 216.525 471.274 213.583 465.657L215.255 464.788C218.13 470.311 221.567 475.567 225.459 480.448L223.988 481.625ZM243.246 500.054L244.356 498.516C249.397 502.194 254.827 505.377 260.457 508.011L259.655 509.723C253.904 507.048 248.368 503.785 243.232 500.041L243.246 500.054ZM211.898 462.234C209.17 456.483 207.004 450.465 205.439 444.3L207.271 443.832C208.809 449.863 210.935 455.788 213.597 461.418L211.885 462.22L211.898 462.234ZM263.185 511.274L263.921 509.522C269.672 511.93 275.676 513.789 281.788 515.032L281.4 516.891C275.168 515.607 269.043 513.708 263.172 511.261L263.185 511.274ZM204.583 440.582C203.259 434.39 202.55 428.011 202.443 421.645L204.342 421.619C204.449 427.877 205.158 434.123 206.442 440.194L204.596 440.596L204.583 440.582ZM285.158 517.6L285.466 515.741C288.863 516.303 292.326 516.691 295.79 516.891C298.572 517.052 301.38 517.105 304.135 517.025L304.175 518.911C301.367 518.991 298.505 518.937 295.67 518.777C292.152 518.576 288.608 518.188 285.158 517.6ZM202.443 417.821C202.47 416.59 202.523 415.36 202.59 414.116C202.965 407.75 203.954 401.411 205.519 395.273L207.351 395.741C205.813 401.746 204.85 407.978 204.489 414.223C204.422 415.44 204.369 416.644 204.342 417.847L202.457 417.807L202.443 417.821ZM307.987 518.737L307.866 516.851C314.098 516.45 320.304 515.433 326.308 513.842L326.803 515.674C320.665 517.292 314.339 518.322 307.987 518.737ZM206.522 391.595C208.328 385.51 210.748 379.559 213.704 373.929L215.389 374.811C212.487 380.335 210.133 386.166 208.341 392.13L206.522 391.595ZM330.454 514.618L329.906 512.812C335.857 510.98 341.661 508.573 347.171 505.631L348.067 507.302C342.463 510.311 336.539 512.759 330.467 514.631L330.454 514.618ZM215.522 370.585C218.692 365.089 222.396 359.86 226.569 355.045L228 356.289C223.908 360.997 220.27 366.132 217.154 371.522L215.522 370.585ZM351.383 505.43L350.421 503.799C355.797 500.642 360.892 496.965 365.573 492.846L366.83 494.263C362.069 498.463 356.867 502.22 351.383 505.43ZM229.137 352.21C229.872 351.421 230.621 350.646 231.383 349.883C235.115 346.152 239.167 342.688 243.446 339.612L244.556 341.15C240.37 344.186 236.385 347.583 232.721 351.247C231.972 351.996 231.236 352.732 230.527 353.521L229.15 352.224L229.137 352.21ZM369.652 491.682L368.354 490.305C368.956 489.73 369.558 489.155 370.16 488.553C373.985 484.728 377.502 480.569 380.631 476.182L382.183 477.279C379 481.746 375.402 485.985 371.511 489.877C370.909 490.479 370.307 491.08 369.678 491.655L369.652 491.682ZM247.632 339.011L246.589 337.433C251.885 333.902 257.542 330.866 263.399 328.432L264.122 330.171C258.384 332.565 252.821 335.534 247.646 338.997L247.632 339.011ZM382.731 473.093C386.155 467.877 389.083 462.301 391.424 456.537L393.176 457.246C390.782 463.116 387.799 468.8 384.309 474.136L382.731 473.093ZM267.599 328.807L266.943 327.028C272.908 324.808 279.1 323.163 285.359 322.147L285.666 324.006C279.528 325.009 273.443 326.627 267.599 328.807ZM392.774 453.046C394.901 447.202 396.452 441.104 397.415 434.925L399.287 435.219C398.311 441.518 396.72 447.737 394.566 453.688L392.788 453.033L392.774 453.046ZM289.371 323.484L289.143 321.598C295.095 320.863 301.179 320.662 307.211 321.023L308.187 321.09L308.067 322.976L307.104 322.922C301.166 322.575 295.215 322.775 289.371 323.484ZM397.91 431.221C398.124 429.348 398.298 427.436 398.405 425.564C398.659 421.217 398.632 416.831 398.298 412.511L400.183 412.364C400.518 416.764 400.544 421.231 400.277 425.671C400.17 427.57 399.996 429.509 399.769 431.421L397.896 431.207L397.91 431.221ZM311.798 323.31L311.999 321.425C318.338 322.093 324.637 323.39 330.681 325.263L330.133 327.068C324.195 325.249 318.03 323.979 311.811 323.324L311.798 323.31ZM397.95 408.793C397.241 402.602 395.931 396.45 394.058 390.512L395.864 389.937C397.789 395.982 399.113 402.254 399.849 408.579L397.977 408.793L397.95 408.793ZM333.677 328.232L334.306 326.453C340.297 328.566 346.114 331.254 351.597 334.49L350.635 336.122C345.245 332.952 339.548 330.305 333.664 328.245L333.677 328.232ZM392.855 386.955C390.742 381.097 388.054 375.413 384.844 370.064L386.462 369.088C389.725 374.544 392.48 380.348 394.633 386.299L392.855 386.928L392.855 386.955ZM353.831 338.061L354.861 336.47C360.21 339.893 365.252 343.865 369.839 348.265L368.528 349.629C364.021 345.31 359.073 341.431 353.831 338.061ZM382.865 366.881C379.454 361.652 375.536 356.744 371.19 352.264L372.554 350.953C376.98 355.514 380.979 360.529 384.456 365.851L382.865 366.881Z" fill="#3921D7"/>
<path d="M253.302 468.065C249.29 464.053 245.787 459.559 242.898 454.691L244.529 453.728C247.712 459.078 251.644 463.972 256.178 468.212L254.881 469.589C254.359 469.094 253.824 468.586 253.302 468.065ZM257.742 472.13L258.959 470.673C263.747 474.685 269.043 477.974 274.74 480.489L273.978 482.214C268.134 479.633 262.664 476.249 257.756 472.117L257.742 472.13ZM241.026 451.348C238.07 445.664 235.917 439.606 234.66 433.32L236.505 432.946C237.736 439.044 239.809 444.942 242.684 450.465L241.012 451.335L241.026 451.348ZM277.535 483.685L278.204 481.92C284.008 484.086 290.12 485.437 296.352 485.918L296.205 487.804C289.799 487.309 283.513 485.918 277.535 483.685ZM234.018 429.549C233.389 425.069 233.189 420.482 233.456 415.935C233.831 409.516 235.088 403.203 237.214 397.199L238.993 397.827C236.92 403.671 235.703 409.81 235.342 416.055C235.088 420.482 235.262 424.935 235.877 429.295L234.005 429.562L234.018 429.549ZM300.029 487.991L300.069 486.106C306.328 486.239 312.52 485.504 318.512 483.899L319.006 485.731C312.841 487.376 306.462 488.138 300.016 488.005L300.029 487.991ZM322.684 484.621L322.096 482.829C327.993 480.89 333.597 478.122 338.759 474.591L339.815 476.156C334.52 479.766 328.756 482.615 322.684 484.621ZM238.605 393.615C241.079 387.717 244.369 382.18 248.394 377.192L249.865 378.369C245.947 383.223 242.751 388.586 240.344 394.337L238.592 393.601L238.605 393.615ZM342.918 473.909L341.768 472.411C344.055 470.659 346.235 468.747 348.268 466.714C350.621 464.36 352.814 461.819 354.767 459.145L356.292 460.268C354.259 463.023 352.012 465.644 349.605 468.051C347.519 470.138 345.272 472.117 342.931 473.922L342.918 473.909ZM250.882 374.277C251.658 373.421 252.447 372.578 253.249 371.776C256.953 368.071 261.099 364.781 265.539 362.026L266.529 363.631C262.209 366.319 258.184 369.516 254.586 373.113C253.797 373.902 253.035 374.718 252.273 375.534L250.869 374.263L250.882 374.277ZM356.893 456.055C360.29 450.84 362.952 445.183 364.77 439.218L366.576 439.766C364.703 445.891 361.989 451.709 358.485 457.085L356.893 456.055ZM269.779 361.746L268.869 360.087C274.513 357.011 280.531 354.765 286.776 353.387L287.177 355.233C281.106 356.57 275.248 358.763 269.779 361.746ZM365.76 435.634C366.71 431.769 367.298 427.784 367.539 423.772C367.672 421.579 367.686 419.345 367.592 417.139L369.478 417.072C369.571 419.332 369.545 421.632 369.424 423.892C369.184 428.011 368.568 432.13 367.606 436.089L365.773 435.647L365.76 435.634ZM290.842 354.537L290.548 352.665C295.429 351.876 300.431 351.635 305.419 351.916C306.836 351.996 308.267 352.117 309.658 352.304L309.431 354.19C308.08 354.016 306.689 353.909 305.312 353.815C300.457 353.534 295.589 353.775 290.855 354.551L290.842 354.537ZM367.338 413.407C366.736 407.215 365.252 401.13 362.952 395.353L364.703 394.644C367.071 400.596 368.609 406.841 369.224 413.207L367.351 413.394L367.338 413.407ZM313.122 354.725L313.456 352.866C319.769 353.989 325.88 356.008 331.618 358.83L330.775 360.529C325.198 357.76 319.247 355.821 313.122 354.725ZM361.454 391.93C358.819 386.299 355.422 381.057 351.317 376.363L352.748 375.119C356.96 379.947 360.477 385.336 363.179 391.141L361.467 391.943L361.454 391.93ZM334.065 362.267L334.988 360.622C340.31 363.645 345.218 367.376 349.565 371.722L350.14 372.297L348.802 373.635L348.227 373.06C344.001 368.834 339.24 365.196 334.065 362.267Z" fill="#3921D7"/>
<path d="M272.682 448.687C271.011 447.015 269.486 445.196 268.135 443.257L269.673 442.174C270.97 444.033 272.428 445.758 274.02 447.349C276.788 450.117 279.931 452.431 283.381 454.25L282.498 455.935C278.888 454.036 275.571 451.602 272.669 448.7L272.682 448.687ZM266.036 439.98C262.853 434.364 261.021 427.984 260.78 421.538L262.666 421.472C262.906 427.623 264.645 433.695 267.681 439.058L266.036 439.98ZM286.016 457.553L286.724 455.801C290.67 457.419 294.856 458.369 299.175 458.623C301.061 458.743 302.96 458.717 304.819 458.543L304.993 460.428C303.04 460.589 301.047 460.629 299.082 460.509C294.561 460.241 290.175 459.252 286.042 457.553H286.016ZM260.807 417.66L260.82 417.513C261.208 410.947 263.08 404.768 266.41 399.165L268.042 400.127C264.872 405.49 263.08 411.375 262.719 417.62L260.82 417.673L260.807 417.66ZM308.817 459.92L308.483 458.061C314.514 456.951 320.292 454.384 325.173 450.599L326.323 452.097C321.215 456.055 315.143 458.757 308.817 459.92ZM268.536 395.942C269.78 394.243 271.158 392.625 272.656 391.127C275.745 388.038 279.275 385.497 283.167 383.531L284.023 385.216C280.319 387.075 276.935 389.522 273.993 392.464C272.575 393.882 271.238 395.433 270.074 397.052L268.55 395.928L268.536 395.942ZM329.265 449.583L327.968 448.205C328.262 447.911 328.583 447.617 328.878 447.322C332.93 443.27 336.086 438.269 337.998 432.906L339.777 433.534C337.771 439.178 334.468 444.407 330.215 448.66C329.907 448.967 329.586 449.288 329.265 449.583ZM287.366 383.718L286.671 381.953C292.141 379.827 297.891 378.917 303.802 379.265C304.431 379.305 305.073 379.358 305.688 379.412L305.487 381.298C304.886 381.231 304.284 381.191 303.682 381.15C298.052 380.816 292.555 381.685 287.353 383.705L287.366 383.718ZM339.055 429.389C339.643 427.035 340.018 424.628 340.151 422.167C340.379 418.436 340.058 414.718 339.215 411.094L341.061 410.666C341.93 414.45 342.278 418.355 342.05 422.274C341.903 424.828 341.516 427.383 340.9 429.843L339.068 429.375L339.055 429.389ZM309.138 381.873L309.513 380.027C315.838 381.298 321.843 384.119 326.885 388.172L325.708 389.643C320.907 385.778 315.183 383.103 309.152 381.886L309.138 381.873ZM338.212 407.55C336.313 401.906 333.077 396.69 328.851 392.464L328.463 392.077L329.8 390.739L330.188 391.127C334.628 395.567 338.025 401.023 340.018 406.948L338.212 407.55Z" fill="#3921D7"/>
<path d="M210.843 273.708C199.422 262.287 190.395 249.061 183.936 234.363C179.576 224.494 176.5 214.089 174.775 203.457C173.25 194.203 172.755 184.667 173.304 175.105C173.33 174.677 173.344 174.236 173.397 173.808L173.371 173.728L173.625 172.725L174.28 172.685C179.669 172.297 185.26 172.27 190.876 172.591C195.464 172.872 199.944 173.367 204.21 174.076C214.842 175.801 225.233 178.863 235.089 183.183C249.787 189.642 263 198.683 274.367 210.05C285.734 221.418 294.601 234.35 301.034 248.833C301.555 248.847 302.063 248.847 302.585 248.833C303.16 247.536 303.775 246.252 304.39 244.995L304.805 244.153C305.099 243.564 305.38 242.989 305.688 242.414C306.116 241.558 306.57 240.702 307.038 239.86C308.309 237.493 309.432 235.567 310.529 233.775L310.636 233.588C310.984 233.026 311.331 232.464 311.692 231.889L312.053 231.314C312.187 231.1 312.308 230.953 312.388 230.793C312.856 230.11 313.284 229.469 313.685 228.853L313.845 228.613C314.18 228.118 314.528 227.61 314.889 227.115L317.416 223.651C318.366 222.381 319.382 221.07 320.546 219.693C320.626 219.559 320.786 219.372 320.933 219.198L321.682 218.288C322.391 217.446 323.113 216.617 323.835 215.788C323.916 215.707 324.023 215.547 324.183 215.413C324.598 214.918 325.039 214.45 325.467 213.969L325.641 213.795C326.443 212.859 327.313 211.963 328.182 211.067C328.503 210.746 328.824 210.425 329.158 210.09C329.613 209.636 330.001 209.248 330.402 208.847C341.582 197.961 354.367 189.348 368.449 183.13C378.372 178.77 388.737 175.68 399.355 173.942L399.556 173.929C408.637 172.417 418.145 171.923 427.707 172.471C428.215 172.498 428.75 172.551 429.285 172.578L430.155 172.645L430.262 173.554C430.649 178.944 430.676 184.534 430.355 190.151C430.074 194.738 429.579 199.218 428.871 203.484C427.159 214.076 424.083 224.454 419.75 234.35C413.291 249.047 404.25 262.26 392.883 273.628L392.843 273.668C381.488 285.022 368.262 294.076 353.565 300.535C352.642 300.95 351.719 301.338 350.77 301.725V302.02L349.994 302.046C341.221 305.604 332.033 308.185 322.659 309.696C318.82 310.325 314.848 310.793 310.877 311.073C305.46 311.461 299.884 311.501 294.267 311.18C293.745 311.14 293.224 311.127 292.702 311.06C288.944 310.806 284.972 310.338 280.96 309.696C271.532 308.185 262.277 305.59 253.424 302.006C252.287 301.538 251.177 301.07 250.054 300.589C235.383 294.156 222.17 285.116 210.79 273.735L210.843 273.708ZM175.243 174.477C175.216 174.718 175.216 174.958 175.203 175.186C174.654 184.614 175.149 194.015 176.647 203.136C178.345 213.608 181.381 223.865 185.674 233.588C192.027 248.071 200.92 261.11 212.127 272.317C223.334 283.524 236.413 292.484 250.883 298.823C251.993 299.318 253.09 299.773 254.2 300.241C262.906 303.785 272.027 306.326 281.308 307.824C285.266 308.466 289.171 308.92 292.903 309.174C293.438 309.228 293.919 309.255 294.427 309.281C299.964 309.602 305.474 309.576 310.81 309.188C314.728 308.907 318.633 308.452 322.405 307.837C331.512 306.353 340.445 303.865 348.978 300.442L349.539 300.201C350.663 299.773 351.759 299.291 352.856 298.81C367.353 292.444 380.379 283.538 391.572 272.344L391.612 272.304C402.819 261.097 411.726 248.071 418.078 233.588C422.358 223.852 425.38 213.608 427.065 203.176C427.774 198.964 428.256 194.55 428.523 190.03C428.831 184.908 428.817 179.813 428.51 174.851L428.389 174.891L428.362 174.383C428.135 174.37 427.894 174.343 427.654 174.343C418.212 173.808 408.851 174.29 399.797 175.774L399.676 175.787C389.232 177.513 379.014 180.535 369.345 184.801C355.383 190.953 342.786 199.459 331.819 210.104C331.351 210.572 330.964 210.96 330.589 211.334C330.215 211.709 329.907 212.016 329.599 212.324C328.717 213.206 327.888 214.089 327.085 214.998L326.898 215.186C326.483 215.681 326.029 216.162 325.614 216.657L325.467 216.804C325.467 216.804 325.387 216.884 325.333 216.938C324.584 217.794 323.862 218.623 323.153 219.465L322.418 220.361C322.284 220.495 322.177 220.655 322.07 220.816C320.893 222.234 319.89 223.504 318.968 224.748L316.453 228.171C316.106 228.653 315.771 229.121 315.437 229.616L315.276 229.856C314.862 230.485 314.434 231.127 313.993 231.755C313.912 231.889 313.792 232.09 313.645 232.29C313.605 232.357 313.538 232.478 313.444 232.598L313.27 232.852C312.909 233.427 312.562 233.962 312.214 234.524L312.094 234.724C311.01 236.476 309.9 238.389 308.643 240.716C308.175 241.558 307.747 242.387 307.306 243.23C306.998 243.805 306.731 244.367 306.45 244.942L306.022 245.798C305.327 247.215 304.645 248.646 304.003 250.117L303.762 250.679L303.16 250.692C302.237 250.706 301.274 250.706 300.338 250.679L299.736 250.666L299.496 250.104C293.13 235.607 284.223 222.581 273.016 211.374C261.809 200.167 248.743 191.22 234.26 184.868C224.564 180.602 214.333 177.593 203.835 175.894C199.636 175.199 195.209 174.704 190.689 174.437C185.447 174.143 180.231 174.143 175.163 174.477L175.243 174.477Z" fill="white"/>
<path d="M231.771 252.725C219.173 240.127 209.999 224.106 205.612 205.998C203.299 196.463 202.416 186.647 203.004 176.831L203.125 175.105L202.723 173.795L204.235 174.049C214.88 175.761 225.258 178.837 235.114 183.156C249.811 189.616 263.024 198.656 274.392 210.024C285.759 221.391 294.626 234.323 301.059 248.807C301.58 248.82 302.088 248.82 302.61 248.807C303.185 247.509 303.8 246.226 304.415 244.968L304.83 244.126C305.124 243.537 305.405 242.962 305.713 242.387C306.141 241.531 306.595 240.676 307.063 239.833C312.747 229.281 319.875 219.586 328.247 211.053C328.554 210.746 328.889 210.411 329.223 210.077C329.678 209.622 330.066 209.235 330.467 208.833C341.647 197.947 354.432 189.335 368.514 183.116C378.438 178.756 388.802 175.667 399.42 173.929L399.621 173.915L401.025 173.848L400.624 174.998C400.972 179.545 400.999 184.012 400.731 188.399C400.383 194.336 399.501 200.248 398.11 205.971C389.404 242.147 361.48 270.07 325.265 278.87C320.156 280.101 314.873 280.943 309.591 281.358C305.071 281.705 300.51 281.745 296.07 281.478C295.415 281.438 294.773 281.384 294.118 281.344C288.875 280.943 283.62 280.101 278.484 278.87C260.39 274.497 244.368 265.323 231.771 252.725ZM204.943 176.068L204.877 176.938C204.315 186.566 205.171 196.195 207.431 205.543C216.043 241.037 243.432 268.426 278.912 277.025C283.954 278.242 289.116 279.044 294.265 279.459C294.907 279.512 295.535 279.552 296.191 279.592C300.537 279.846 305.017 279.806 309.444 279.472C314.619 279.057 319.795 278.242 324.797 277.038C360.33 268.412 387.705 241.01 396.251 205.53C397.615 199.913 398.484 194.096 398.819 188.278C399.059 184.213 399.046 180.08 398.765 175.948C388.641 177.7 378.745 180.669 369.344 184.801C355.382 190.953 342.784 199.459 331.818 210.104C331.35 210.572 330.962 210.96 330.587 211.334C330.213 211.709 329.905 212.016 329.598 212.324C321.319 220.762 314.298 230.298 308.695 240.716C308.227 241.558 307.799 242.387 307.371 243.243C307.063 243.818 306.796 244.38 306.515 244.955L306.087 245.811C305.392 247.229 304.71 248.66 304.068 250.131L303.827 250.692L303.225 250.706C302.302 250.719 301.339 250.719 300.403 250.692L299.802 250.679L299.561 250.117C293.195 235.62 284.288 222.595 273.081 211.388C261.874 200.181 248.808 191.234 234.325 184.881C224.937 180.762 215.054 177.807 204.93 176.082L204.943 176.068Z" fill="white"/>
<path d="M253.773 230.672C241.737 218.636 234.154 202.173 233.766 184.133L233.726 182.648L235.077 183.143C249.774 189.602 262.987 198.643 274.355 210.01L274.395 210.05C285.762 221.418 294.816 234.644 301.276 249.342L301.543 249.93L300.42 251.053L300.005 250.639C299.283 250.639 298.574 250.599 297.879 250.572C280.721 249.569 265.221 242.12 253.76 230.659L253.773 230.672ZM235.705 185.483C237.096 219.051 264.204 246.72 297.999 248.686C298.32 248.713 298.641 248.713 298.962 248.74C292.636 234.791 283.944 222.247 273.084 211.388L273.044 211.348C262.185 200.488 249.641 191.796 235.705 185.483Z" fill="white"/>
<path d="M301.756 250.759L302.371 249.368C303.027 247.884 303.709 246.399 304.418 244.968L304.832 244.126C305.126 243.537 305.407 242.962 305.715 242.387C306.143 241.531 306.597 240.676 307.066 239.833C312.749 229.281 319.877 219.586 328.249 211.053C328.557 210.746 328.891 210.411 329.225 210.077C329.68 209.622 330.068 209.235 330.469 208.833C341.649 197.947 354.434 189.335 368.517 183.116L369.48 182.688L370.055 184.199L369.894 184.36C369.894 185.109 369.881 185.844 369.827 186.593C367.781 221.832 338.56 249.984 303.294 250.692L301.756 250.759ZM367.982 185.416C354.581 191.488 342.452 199.793 331.833 210.117C331.365 210.585 330.977 210.973 330.603 211.348C330.228 211.722 329.921 212.03 329.613 212.337C321.335 220.776 314.314 230.311 308.71 240.729C308.242 241.572 307.814 242.401 307.386 243.257C307.079 243.832 306.811 244.393 306.531 244.968L306.103 245.824C305.621 246.787 305.166 247.777 304.712 248.767C338.346 247.336 365.989 220.254 367.942 186.5C367.968 186.152 367.982 185.791 367.982 185.443V185.416Z" fill="white"/>
<path d="M329.546 212.404L328.235 211.04C328.57 210.706 328.891 210.385 329.225 210.05C329.68 209.596 330.068 209.208 330.469 208.807L331.806 210.144C331.405 210.545 331.044 210.96 330.643 211.361L330.602 211.401C330.268 211.735 329.92 212.083 329.546 212.404Z" fill="white"/>
<path d="M329.333 392.197C317.966 380.83 308.965 367.683 302.519 353.026L302.426 352.852C301.958 351.796 301.53 350.753 301.088 349.696L300.914 349.522L300.914 349.282C297.357 340.535 294.776 331.348 293.265 321.946C292.623 318.068 292.155 314.096 291.901 310.178C291.513 304.842 291.473 299.265 291.794 293.594C291.82 293.086 291.874 292.551 291.901 292.016C292.195 287.978 292.65 284.019 293.251 280.261C294.803 270.793 297.384 261.525 300.968 252.752C301.409 251.615 301.891 250.492 302.385 249.355C303.027 247.884 303.709 246.426 304.405 244.982L304.833 244.126C305.127 243.538 305.408 242.962 305.715 242.387C306.143 241.531 306.598 240.676 307.066 239.833C308.337 237.466 309.46 235.54 310.557 233.748C311.158 232.745 311.8 231.755 312.442 230.766C312.897 230.097 313.325 229.455 313.726 228.84L313.887 228.599C314.221 228.105 314.569 227.596 314.93 227.102L317.457 223.638C318.407 222.367 319.423 221.057 320.587 219.679C320.667 219.546 320.828 219.358 320.975 219.184L321.724 218.275C322.432 217.433 323.155 216.603 323.877 215.774C323.97 215.681 324.117 215.48 324.318 215.333C325.883 213.554 327.568 211.762 329.226 210.104C340.62 198.71 353.833 189.669 368.544 183.196C378.414 178.837 388.818 175.761 399.464 174.049C408.705 172.511 418.253 172.03 427.815 172.578C428.27 172.605 428.711 172.618 429.126 172.658L429.487 172.538L430.249 173.22L430.276 173.568C430.664 178.957 430.691 184.547 430.37 190.164C430.089 194.751 429.594 199.231 428.885 203.497C427.173 214.089 424.097 224.467 419.764 234.363C413.305 249.061 404.265 262.274 392.897 273.641C381.53 285.009 368.611 293.862 354.114 300.308C354.101 300.829 354.087 301.351 354.101 301.873C355.398 302.448 356.668 303.049 357.939 303.678C358.808 304.093 359.664 304.521 360.52 304.975C372.021 310.833 382.573 318.416 391.881 327.536C392.67 328.272 393.432 329.034 394.087 329.743C404.92 340.843 413.506 353.574 419.711 367.643L419.831 367.871C424.151 377.647 427.227 388.024 428.979 398.71L429.019 398.964C430.517 408.138 431.012 417.593 430.463 427.075C430.436 427.53 430.41 428.011 430.356 428.493L430.289 429.362L429.875 429.429L429.728 429.576L429.38 429.603C423.964 429.99 418.387 430.031 412.783 429.696C408.196 429.415 403.716 428.921 399.45 428.212C388.858 426.5 378.481 423.424 368.584 419.091C353.887 412.632 340.674 403.591 329.306 392.224L329.333 392.197ZM304.084 351.916L304.191 352.103C310.543 366.587 319.423 379.613 330.617 390.806C341.81 402 354.903 410.973 369.387 417.326C379.122 421.605 389.367 424.628 399.798 426.313C403.997 427.008 408.424 427.503 412.944 427.77C418.053 428.065 423.148 428.051 428.123 427.757L428.056 427.583H428.564C428.578 427.356 428.591 427.129 428.604 426.928C429.153 417.526 428.658 408.152 427.16 399.058L427.147 398.777C425.435 388.479 422.439 378.342 418.226 368.753L418.106 368.526C411.994 354.604 403.502 341.993 392.857 331.08C392.389 330.585 391.948 330.171 391.6 329.823C391.279 329.502 390.958 329.181 390.677 328.9C381.463 319.873 371.072 312.398 359.718 306.634C358.875 306.192 358.033 305.778 357.163 305.363C355.732 304.654 354.301 303.999 352.857 303.357L352.576 303.156L352.309 302.889L352.282 302.488C352.255 301.525 352.269 300.549 352.322 299.612L352.349 299.024L352.884 298.783C367.381 292.418 380.406 283.511 391.6 272.317C402.794 261.124 411.754 248.044 418.106 233.561C422.386 223.825 425.408 213.581 427.093 203.15C427.802 198.937 428.283 194.524 428.551 190.004C428.858 184.748 428.845 179.519 428.524 174.464C428.297 174.45 428.096 174.437 427.869 174.423C418.36 173.875 408.959 174.343 399.851 175.854C389.367 177.539 379.109 180.575 369.387 184.868C354.89 191.234 341.864 200.141 330.67 211.334C328.999 213.006 327.327 214.785 325.655 216.643C325.495 216.804 325.441 216.857 325.388 216.911C324.639 217.767 323.917 218.596 323.208 219.439L322.472 220.335C322.339 220.468 322.232 220.629 322.125 220.789C320.948 222.207 319.945 223.477 319.022 224.721L316.508 228.145C316.16 228.626 315.826 229.094 315.492 229.589L315.331 229.83C314.916 230.458 314.488 231.1 314.047 231.729C313.419 232.705 312.79 233.681 312.175 234.671C311.078 236.436 309.982 238.335 308.711 240.676C308.243 241.518 307.815 242.347 307.374 243.19C307.066 243.765 306.799 244.327 306.518 244.902L306.09 245.758C305.408 247.188 304.739 248.606 304.097 250.077C303.602 251.187 303.134 252.27 302.706 253.394C299.176 262.06 296.635 271.18 295.11 280.515C294.509 284.22 294.054 288.125 293.773 292.097C293.733 292.618 293.693 293.14 293.666 293.621C293.345 299.211 293.385 304.708 293.76 309.977C294.014 313.842 294.468 317.747 295.097 321.558C296.581 330.692 299.069 339.626 302.479 348.118L302.72 348.707C303.148 349.776 303.576 350.793 304.044 351.849L304.084 351.916Z" fill="white"/>
<path d="M350.262 371.214C337.664 358.616 328.49 342.595 324.103 324.487C322.846 319.352 322.017 314.083 321.616 308.813C321.268 304.293 321.242 299.746 321.496 295.293L321.616 293.38C322.057 288.044 322.886 282.775 324.117 277.72C332.823 241.545 360.747 213.621 396.962 204.821C406.417 202.534 416.233 201.652 426.116 202.227C426.544 202.254 426.972 202.28 427.4 202.307L429.059 202.334L428.911 203.444C427.2 214.036 424.137 224.427 419.791 234.31C413.331 249.007 404.291 262.22 392.923 273.588C381.556 284.955 368.637 293.808 354.14 300.254C354.127 300.776 354.114 301.298 354.127 301.819C355.424 302.394 356.695 302.996 357.965 303.625C358.834 304.039 359.69 304.467 360.546 304.922C372.047 310.779 382.599 318.362 391.907 327.483C392.696 328.218 393.458 328.981 394.114 329.689C404.946 340.789 413.532 353.521 419.737 367.59L419.858 367.817C424.177 377.593 427.253 387.971 429.005 398.656L429.045 398.884L428.751 399.873L428.015 399.833L428.055 398.884L427.975 399.82C423.522 400.154 418.975 400.208 414.535 399.94C408.637 399.606 402.713 398.71 396.949 397.332C378.854 392.959 362.833 383.785 350.222 371.174L350.262 371.214ZM426.892 204.179C426.598 204.153 426.317 204.139 426.036 204.126C416.3 203.564 406.698 204.42 397.417 206.667C361.884 215.293 334.508 242.695 325.962 278.175C324.759 283.15 323.943 288.299 323.502 293.528L323.381 295.413C323.114 299.773 323.154 304.226 323.502 308.666C323.889 313.815 324.705 318.991 325.936 324.019C334.535 359.526 361.924 386.915 397.417 395.5C403.087 396.864 408.891 397.72 414.682 398.055C418.721 398.295 422.88 398.282 427.012 398.001C425.287 387.958 422.332 378.075 418.226 368.727L418.106 368.499C411.994 354.577 403.502 341.966 392.856 331.054C392.402 330.572 391.987 330.211 391.599 329.796C391.278 329.475 390.957 329.155 390.677 328.874C381.462 319.847 371.071 312.371 359.717 306.607C358.875 306.165 358.032 305.751 357.163 305.336C355.732 304.628 354.301 303.972 352.856 303.33L352.576 303.13L352.308 302.862L352.281 302.461C352.255 301.498 352.268 300.522 352.322 299.586L352.348 298.997L352.883 298.757C367.38 292.391 380.406 283.484 391.599 272.29C402.793 261.097 411.753 248.018 418.106 233.534C422.238 224.106 425.207 214.209 426.932 204.139L426.892 204.179Z" fill="white"/>
<path d="M353.032 300.803L352.122 299.893L352.296 299.425C352.296 298.65 352.336 297.887 352.376 297.125C354.436 261.926 383.63 233.775 418.816 233.013L420.3 232.972L419.819 234.337C413.359 249.034 404.319 262.247 392.951 273.614L392.911 273.655C381.691 284.875 368.679 293.822 354.182 300.268L354.182 300.562H353.513L353.045 300.763L353.032 300.803ZM417.478 234.965C383.871 236.423 356.241 263.517 354.275 297.259C354.262 297.566 354.249 297.901 354.222 298.222C368.17 291.896 380.728 283.19 391.561 272.357L391.601 272.317C402.46 261.458 411.153 248.914 417.465 234.978L417.478 234.965Z" fill="white"/>
<path d="M372.276 349.175C360.213 337.112 352.63 320.622 352.269 302.528L352.215 300.174L353.753 301.712C355.198 302.327 356.602 302.983 357.993 303.678C358.862 304.093 359.718 304.521 360.574 304.975C372.075 310.833 382.627 318.416 391.935 327.536C392.724 328.272 393.486 329.034 394.141 329.743C404.974 340.843 413.56 353.574 419.765 367.643L420.353 368.232L419.003 369.582L418.575 369.208C417.839 369.195 417.104 369.155 416.368 369.114C399.21 368.111 383.723 360.676 372.276 349.228L372.276 349.175ZM354.208 303.959C355.639 337.593 382.734 365.223 416.488 367.175C416.836 367.202 417.184 367.229 417.531 367.229C411.473 353.815 403.168 341.659 392.844 331.067C392.389 330.585 391.975 330.224 391.587 329.81C391.266 329.489 390.945 329.168 390.651 328.874C381.436 319.847 371.045 312.371 359.691 306.607C358.849 306.165 358.006 305.751 357.137 305.336C356.147 304.855 355.171 304.387 354.181 303.932L354.208 303.959Z" fill="white"/>
<path d="M391.571 329.877C391.197 329.502 390.863 329.168 390.568 328.82L391.932 327.51C392.721 328.245 393.484 329.007 394.139 329.716L392.802 331.054C392.401 330.679 391.973 330.278 391.571 329.877Z" fill="white"/>
<path d="M173.438 429.282L173.384 428.666C172.997 423.277 172.97 417.687 173.291 412.07C173.572 407.456 174.066 402.976 174.775 398.737C176.5 388.105 179.563 377.714 183.883 367.857C190.342 353.16 199.382 339.947 210.75 328.579C222.117 317.212 235.05 308.345 249.546 301.899C249.56 301.378 249.56 300.87 249.56 300.361C235.705 294.236 223.134 285.758 212.208 275.152C210.991 273.989 210.188 273.186 209.346 272.29C198.62 261.244 190.075 248.553 183.896 234.537L183.802 234.363C179.469 224.52 176.393 214.143 174.668 203.564L174.642 203.323C173.144 194.283 172.649 184.774 173.197 175.212C173.224 174.758 173.251 174.276 173.304 173.795L173.371 172.926L173.598 172.885L173.652 172.725L174.307 172.685C179.697 172.297 185.287 172.27 190.904 172.591C195.491 172.872 199.971 173.367 204.237 174.076C214.869 175.801 225.26 178.863 235.116 183.183C249.814 189.642 263.027 198.683 274.394 210.05C285.762 221.418 294.856 234.684 301.315 249.382C301.77 250.425 302.224 251.495 302.639 252.551L302.759 252.672L302.773 252.899C306.344 261.712 308.925 270.926 310.449 280.315C311.104 284.153 311.573 288.125 311.827 292.097C312.214 297.486 312.255 303.063 311.92 308.666C311.893 309.174 311.84 309.709 311.813 310.244C311.532 314.216 311.078 318.175 310.449 322.013C308.925 331.401 306.344 340.642 302.746 349.482C302.305 350.619 301.81 351.756 301.328 352.879C294.882 367.563 285.842 380.776 274.461 392.157L274.421 392.197C263.054 403.564 249.841 412.605 235.143 419.064C225.314 423.411 214.909 426.487 204.21 428.225C194.956 429.75 185.421 430.245 175.859 429.696C175.431 429.669 175.016 429.656 174.588 429.603L174.468 429.643L173.451 429.322L173.438 429.282ZM251.031 298.944L251.432 299.345L251.459 299.746C251.472 300.696 251.472 301.632 251.432 302.581L251.405 303.17L250.87 303.411C236.374 309.776 223.348 318.683 212.154 329.877C200.961 341.07 191.987 354.163 185.635 368.646C181.382 378.355 178.359 388.6 176.661 399.071C175.952 403.257 175.471 407.67 175.203 412.217C174.896 417.473 174.909 422.675 175.243 427.744C175.484 427.77 175.725 427.77 175.952 427.784C185.38 428.332 194.782 427.837 203.903 426.339C214.441 424.628 224.698 421.592 234.381 417.312C248.878 410.947 261.903 402.04 273.097 390.846L273.137 390.806C284.344 379.599 293.251 366.573 299.603 352.09C300.085 350.993 300.566 349.87 301.007 348.76C304.538 340.04 307.092 330.933 308.59 321.679C309.219 317.894 309.673 313.989 309.954 310.07C309.994 309.549 310.035 309.027 310.061 308.546C310.382 303.009 310.342 297.513 309.968 292.19C309.714 288.272 309.259 284.367 308.617 280.595C307.119 271.368 304.578 262.274 301.061 253.594L300.981 253.407C300.553 252.31 300.085 251.2 299.603 250.131C293.238 235.634 284.331 222.608 273.124 211.401C261.917 200.194 248.851 191.247 234.367 184.895C224.672 180.629 214.441 177.62 203.943 175.921C199.744 175.226 195.317 174.731 190.797 174.464C185.661 174.169 180.553 174.169 175.591 174.477L175.792 175.186L175.136 174.958C175.136 174.958 175.123 175.186 175.11 175.306C174.575 184.748 175.056 194.109 176.541 203.163L176.567 203.404C178.252 213.621 181.248 223.785 185.487 233.427L185.514 233.454L185.648 233.775C191.706 247.536 200.131 260.054 210.67 270.913C211.191 271.461 211.633 271.983 212.114 272.384C212.569 272.839 212.983 273.253 213.398 273.641L213.545 273.788C224.444 284.367 237.002 292.805 250.884 298.85L251.044 298.93L251.031 298.944Z" fill="white"/>
<path d="M174.44 399.82L174.787 398.75C176.512 388.118 179.575 377.727 183.895 367.871C190.354 353.173 199.394 339.96 210.762 328.593C222.129 317.225 235.062 308.359 249.558 301.913C249.572 301.391 249.572 300.883 249.572 300.375C235.717 294.25 223.146 285.771 212.22 275.166C211.003 274.002 210.2 273.2 209.358 272.304C198.632 261.257 190.087 248.566 183.908 234.55L183.814 234.377C179.481 224.534 176.405 214.156 174.68 203.578L174.654 203.337L174.654 202.401L175.59 202.401C180.083 202.053 184.644 202.013 189.137 202.28C195.128 202.628 201.066 203.511 206.737 204.902C242.898 213.648 270.836 241.558 279.609 277.774C280.839 282.802 281.681 288.058 282.083 293.407C282.43 297.927 282.47 302.461 282.203 306.928L282.083 308.84C281.641 314.176 280.812 319.445 279.582 324.5C270.862 360.689 242.938 388.613 206.696 397.386C197.228 399.686 187.412 400.569 177.556 399.994C177.141 399.98 176.7 399.94 176.272 399.913L174.399 399.833L174.44 399.82ZM251.029 298.944L251.431 299.345L251.457 299.746C251.471 300.696 251.471 301.632 251.431 302.581L251.404 303.17L250.869 303.41C236.372 309.776 223.346 318.683 212.153 329.877C200.959 341.07 191.986 354.163 185.633 368.646C181.514 378.034 178.545 387.931 176.82 398.055C177.114 398.081 177.395 398.095 177.676 398.108C187.358 398.67 196.987 397.814 206.282 395.554C241.802 386.941 269.204 359.539 277.776 324.059C278.98 319.084 279.796 313.935 280.237 308.706L280.357 306.821C280.612 302.448 280.571 297.994 280.237 293.568C279.823 288.312 279.007 283.163 277.803 278.242C269.191 242.722 241.802 215.333 206.322 206.76C200.759 205.396 194.941 204.527 189.043 204.193C184.924 203.952 180.765 203.965 176.7 204.233C178.425 214.25 181.38 224.106 185.486 233.481L185.513 233.507L185.647 233.828C191.705 247.59 200.13 260.107 210.668 270.966C211.19 271.515 211.604 271.956 212.113 272.438C212.567 272.892 212.982 273.307 213.41 273.708L213.557 273.855C224.456 284.434 237.014 292.872 250.896 298.917L251.056 298.997L251.029 298.944Z" fill="white"/>
<path d="M210.777 273.748C210.269 273.24 209.801 272.772 209.333 272.277C198.607 261.231 190.062 248.539 183.883 234.524L182.934 233.574L184.672 232.959L184.913 233.013C185.702 233.026 186.531 233.053 187.347 233.093C222.573 235.152 250.737 264.387 251.446 299.653L251.393 299.974L251.058 300.95L250.095 300.575C236.026 294.424 223.268 285.865 212.208 275.126C211.647 274.591 211.219 274.163 210.777 273.721L210.777 273.748ZM186.143 234.965C192.161 248.258 200.4 260.375 210.657 270.926C211.179 271.475 211.593 271.916 212.101 272.397C212.556 272.852 212.971 273.267 213.399 273.668L213.546 273.815C224.097 284.046 236.187 292.284 249.52 298.288C248.103 264.668 221.008 237.011 187.24 235.045C186.879 235.032 186.531 235.005 186.17 234.992L186.143 234.965Z" fill="white"/>
<path d="M183.039 369.823L183.895 367.871C190.354 353.173 199.395 339.96 210.762 328.593C222.13 317.225 235.049 308.372 249.545 301.926L249.545 301.659L250.161 301.659L250.696 301.418L251.605 302.327L251.444 302.809C251.444 303.584 251.404 304.347 251.364 305.109C249.318 340.295 220.151 368.446 184.938 369.208L183.053 369.837L183.039 369.823ZM249.505 303.999C235.557 310.325 222.986 319.017 212.14 329.863C201.294 340.709 192.534 353.32 186.222 367.255C219.843 365.811 247.473 338.716 249.438 304.975C249.465 304.654 249.465 304.333 249.492 304.012L249.505 303.999Z" fill="white"/>
<path d="M210.778 273.748C210.27 273.24 209.802 272.772 209.333 272.277L210.671 270.94C211.687 271.849 212.663 272.825 213.453 273.721L212.115 275.059C211.647 274.617 211.206 274.176 210.778 273.748Z" fill="white"/>
<path d="M173.504 429.589L173.504 429.322L173.464 429.282L173.397 428.68C173.009 423.29 172.983 417.7 173.304 412.083C173.584 407.469 174.079 402.989 174.788 398.75C176.513 388.118 179.576 377.727 183.895 367.871C190.355 353.173 199.395 339.96 210.763 328.593C222.13 317.225 235.383 308.145 250.094 301.672C251.177 301.204 252.207 300.736 253.25 300.335L253.424 300.161L253.651 300.174C262.438 296.603 271.639 294.036 280.987 292.524C284.825 291.869 288.797 291.401 292.769 291.147C298.158 290.759 303.748 290.732 309.338 291.053L309.887 291.094C310.234 291.12 310.609 291.147 310.943 291.187C314.982 291.455 318.927 291.923 322.672 292.538C332.02 294.049 341.221 296.617 349.994 300.147L350.194 300.214L350.475 300.335C351.197 300.629 351.933 300.936 352.642 301.244C352.936 301.351 353.244 301.498 353.551 301.645C355.022 302.287 356.467 302.956 357.924 303.665C358.794 304.079 359.663 304.521 360.532 304.962C372.448 311.074 383.321 319.004 392.829 328.513C404.237 339.92 413.29 353.146 419.75 367.844C424.123 377.78 427.199 388.185 428.897 398.763C430.435 408.004 430.917 417.553 430.368 427.115C430.342 427.543 430.315 427.971 430.275 428.412L430.395 428.773L429.713 429.536L429.365 429.562C423.949 429.95 418.372 429.99 412.769 429.656C408.182 429.375 403.702 428.88 399.436 428.172C388.844 426.46 378.466 423.384 368.57 419.051C353.872 412.592 340.659 403.551 329.292 392.184C317.924 380.816 309.071 367.871 302.638 353.387C302.117 353.374 301.582 353.374 301.06 353.387C294.908 367.269 286.43 379.84 275.851 390.739C275.303 391.288 274.862 391.729 274.42 392.17C273.926 392.665 273.444 393.147 272.989 393.601C261.97 404.3 249.292 412.832 235.29 419.024L235.062 419.145C225.219 423.478 214.868 426.553 204.25 428.292L204.009 428.319C194.969 429.817 185.46 430.311 175.898 429.763C175.39 429.736 174.855 429.683 174.32 429.656L173.451 429.589L173.504 429.589ZM176.005 427.062L175.711 427.864L176.045 427.877C185.487 428.412 194.848 427.931 203.902 426.446L204.143 426.42C214.387 424.735 224.551 421.712 234.18 417.486L234.407 417.366C248.262 411.268 260.806 402.842 271.679 392.291C272.187 391.782 272.655 391.314 273.096 390.873C273.538 390.432 273.992 389.977 274.407 389.562L274.554 389.415C285.052 378.596 293.464 366.092 299.522 352.277L299.522 351.555L300.432 351.502C301.395 351.475 302.344 351.488 303.307 351.515H303.681L304.176 352.09C310.529 366.573 319.409 379.599 330.602 390.793C341.796 401.986 354.889 410.96 369.372 417.312C379.108 421.592 389.352 424.614 399.783 426.299C403.983 426.995 408.409 427.49 412.929 427.757C418.158 428.065 423.387 428.051 428.456 427.717C428.483 427.476 428.496 427.222 428.509 426.995C429.058 417.566 428.563 408.165 427.065 399.044C425.38 388.613 422.358 378.369 418.051 368.579C411.686 354.083 402.779 341.057 391.572 329.85C382.157 320.435 371.458 312.625 359.69 306.607C358.847 306.165 358.005 305.751 357.135 305.336C355.691 304.641 354.26 303.986 352.802 303.357C352.508 303.223 352.227 303.103 351.946 302.983C351.211 302.675 350.502 302.367 349.78 302.073L349.472 301.953C340.779 298.422 331.659 295.881 322.391 294.37C318.7 293.755 314.795 293.3 310.81 293.033C310.448 292.993 310.114 292.979 309.793 292.952L309.245 292.912C303.735 292.591 298.238 292.631 292.916 293.006C288.997 293.26 285.092 293.715 281.321 294.357C272.214 295.814 263.28 298.302 254.735 301.739L254.119 301.98C254.119 301.98 254.039 302.006 254.026 302.02C252.969 302.434 251.94 302.876 250.923 303.33C236.373 309.723 223.347 318.63 212.153 329.823C200.96 341.017 191.986 354.109 185.634 368.593C181.381 378.302 178.359 388.546 176.66 399.017C175.951 403.203 175.47 407.617 175.203 412.164C174.908 417.272 174.908 422.354 175.216 427.289L176.018 426.995L176.005 427.062Z" fill="white"/>
<path d="M203.14 428.305L203.127 427.383C202.779 422.862 202.739 418.329 203.007 413.809C203.368 407.857 204.237 401.933 205.614 396.222C214.347 360.047 242.284 332.11 278.486 323.324C283.595 322.093 288.878 321.251 294.16 320.836C298.627 320.488 303.174 320.462 307.667 320.729C308.416 320.783 309.005 320.809 309.62 320.863C314.929 321.277 320.185 322.12 325.267 323.35C361.442 332.083 389.366 360.007 398.139 396.222C400.439 405.718 401.308 415.52 400.747 425.363C400.72 425.764 400.693 426.192 400.667 426.594L400.626 427.195L400.68 428.372L399.516 428.172C388.925 426.46 378.533 423.397 368.65 419.051C353.953 412.592 340.74 403.551 329.373 392.184C318.005 380.816 309.152 367.871 302.719 353.387C302.198 353.374 301.663 353.374 301.141 353.387C294.989 367.269 286.511 379.84 275.932 390.739C275.384 391.288 274.942 391.729 274.501 392.17C274.006 392.665 273.525 393.147 273.07 393.601C262.05 404.3 249.372 412.832 235.37 419.024L235.143 419.145C225.3 423.478 214.949 426.553 204.331 428.292L204.09 428.319L203.18 428.319L203.14 428.305ZM370.63 350.819C358.273 338.462 342.559 329.462 324.826 325.183C319.837 323.966 314.662 323.15 309.459 322.735C308.858 322.695 308.283 322.655 307.681 322.615C303.161 322.347 298.694 322.374 294.307 322.722C289.132 323.136 283.956 323.952 278.955 325.156C243.448 333.782 216.046 361.184 207.46 396.65C206.109 402.254 205.253 408.058 204.906 413.916C204.665 418.035 204.678 422.194 204.946 426.259C214.989 424.534 224.845 421.579 234.207 417.459L234.434 417.339C248.289 411.241 260.833 402.816 271.706 392.264C272.214 391.756 272.682 391.288 273.124 390.846C273.565 390.405 274.02 389.95 274.434 389.536L274.581 389.389C285.08 378.569 293.491 366.065 299.55 352.25V351.528L300.459 351.475C301.422 351.448 302.372 351.461 303.334 351.488L303.709 351.488L304.204 352.063C310.556 366.547 319.436 379.572 330.63 390.766C341.823 401.96 354.916 410.933 369.399 417.286C378.828 421.418 388.724 424.387 398.794 426.112C398.821 425.818 398.834 425.537 398.848 425.256C399.409 415.574 398.554 405.945 396.293 396.65C391.987 378.89 382.987 363.177 370.63 350.819Z" fill="white"/>
<path d="M234.488 419.853L233.592 418.075L233.793 417.821C233.806 417.085 233.819 416.349 233.873 415.601C235.932 380.375 265.167 352.21 300.433 351.502L301.395 351.475L301.342 352.839C295.177 366.948 286.618 379.679 275.906 390.713L275.103 390.178L275.799 390.82C275.357 391.261 274.916 391.702 274.475 392.143C273.98 392.638 273.498 393.12 273.044 393.574C262.024 404.273 249.346 412.806 235.344 418.997L234.501 419.84L234.488 419.853ZM299.002 353.414C265.381 354.832 237.738 381.913 235.758 415.694C235.732 416.042 235.718 416.403 235.705 416.764C249.052 410.719 261.141 402.481 271.68 392.264C272.188 391.756 272.656 391.288 273.097 390.846C273.538 390.405 273.993 389.95 274.408 389.536L274.555 389.389C284.759 378.864 292.984 366.761 299.002 353.414Z" fill="white"/>
<path d="M329.331 392.197C317.963 380.83 308.963 367.683 302.53 353.039L301.046 351.555L303.306 351.542C304.135 351.542 304.924 351.582 305.74 351.622C341.019 353.681 369.17 382.876 369.946 418.075L369.986 419.559L368.622 419.078C353.924 412.618 340.712 403.578 329.344 392.21L329.331 392.197ZM304.79 353.454C311.089 367.403 319.782 379.974 330.615 390.806C341.447 401.639 354.072 410.412 368.007 416.724C366.576 383.143 339.481 355.487 305.7 353.508C305.392 353.494 305.085 353.481 304.777 353.467L304.79 353.454Z" fill="white"/>
<path d="M271.69 392.277C272.145 391.769 272.6 391.288 273.081 390.806C273.563 390.325 274.004 389.883 274.485 389.482L275.796 390.846C275.355 391.288 274.913 391.729 274.472 392.17L274.432 392.21C273.977 392.665 273.496 393.147 273.041 393.601L271.704 392.264L271.69 392.277Z" fill="white"/>
</g>
<defs>
<clipPath id="clip0_411_4329">
<rect width="425.106" height="425.106" fill="white" transform="translate(301.434 0.80896) rotate(45)"/>
</clipPath>
</defs>
</svg>
