<svg width="217" height="60" viewBox="0 0 217 60" fill="none" xmlns="http://www.w3.org/2000/svg">
<path d="M84.2362 39.497V46.8467H78.9865V15.8253H89.0088C91.395 15.8253 93.2722 16.5411 94.6403 17.9729C96.0403 19.3728 96.7403 21.1228 96.7403 23.2227C96.7403 25.0999 95.9767 26.818 94.4494 28.377C96.7403 28.8861 98.5856 30.1588 99.9856 32.195C101.386 34.2313 102.085 36.6494 102.085 39.4493V46.8467H96.8357V39.9265C96.8357 37.6357 96.2471 35.8381 95.0699 34.5336C93.9245 33.2291 92.3973 32.5768 90.4882 32.5768C88.7065 32.5768 87.2111 33.1973 86.0021 34.4381C84.8248 35.679 84.2362 37.3653 84.2362 39.497ZM88.102 20.9319H84.2362V29.9042C84.459 29.6815 84.7135 29.4588 84.9998 29.2361C85.2862 29.0134 85.5884 28.8065 85.9066 28.6156C86.2566 28.4247 86.543 28.2657 86.7657 28.1384C87.0202 27.9793 87.3543 27.8043 87.7679 27.6134C88.1815 27.3907 88.4838 27.2316 88.6747 27.1362C90.5837 26.118 91.5382 24.9726 91.5382 23.6999C91.5382 22.8409 91.2359 22.1727 90.6314 21.6955C90.0269 21.1864 89.1838 20.9319 88.102 20.9319Z" fill="white"/>
<path d="M112.34 15.8253V46.8467H107.09V15.8253H112.34Z" fill="white"/>
<path d="M140.348 15.8253L125.696 41.6447H140.491V46.8467H116.629L131.328 21.0273H118.347V15.8253H140.348Z" fill="white"/>
<path d="M158 47.5149C153.577 47.5149 149.807 45.9399 146.689 42.7901C143.603 39.6402 142.06 35.8063 142.06 31.2883C142.06 26.8339 143.603 23.0318 146.689 19.8819C149.807 16.7002 153.577 15.1094 158 15.1094C162.422 15.1094 166.193 16.7002 169.311 19.8819C172.461 23.0318 174.035 26.8339 174.035 31.2883C174.035 35.8063 172.476 39.6402 169.358 42.7901C166.24 45.9399 162.454 47.5149 158 47.5149ZM158 42.1219C160.959 42.1219 163.456 41.072 165.493 38.972C167.561 36.8721 168.595 34.3109 168.595 31.2883C168.595 28.2975 167.561 25.768 165.493 23.6999C163.456 21.6 160.959 20.5501 158 20.5501C155.073 20.5501 152.591 21.6 150.555 23.6999C148.518 25.768 147.5 28.2975 147.5 31.2883C147.5 34.3109 148.518 36.8721 150.555 38.972C152.591 41.072 155.073 42.1219 158 42.1219Z" fill="white"/>
<path d="M205.668 15.1094C208.532 15.1094 210.998 16.1593 213.066 18.2593C215.134 20.3274 216.168 22.9363 216.168 26.0862V46.799H210.918V25.8953C210.918 24.3999 210.409 23.1272 209.391 22.0773C208.373 21.0273 207.132 20.5023 205.668 20.5023C204.237 20.5023 203.012 21.0114 201.994 22.0296C200.975 23.0477 200.466 24.2567 200.466 25.6567V46.8467H195.169L195.217 25.6567C195.217 24.2886 194.692 23.0954 193.642 22.0773C192.592 21.0273 191.351 20.5023 189.919 20.5023C188.424 20.5023 187.151 21.0273 186.101 22.0773C185.051 23.1272 184.526 24.3999 184.526 25.8953V46.8467H179.324L179.276 26.0862C179.276 22.9363 180.31 20.3274 182.378 18.2593C184.478 16.1593 186.992 15.1094 189.919 15.1094C193.133 15.1094 195.757 16.3502 197.794 18.832C199.83 16.3502 202.455 15.1094 205.668 15.1094Z" fill="white"/>
<g clip-path="url(#clip0_754_237)">
<path d="M30.3484 22.8831C32.2468 22.8831 34.0314 23.6026 35.3738 24.9101C36.7162 26.217 37.4559 27.9546 37.4559 29.8028C37.4559 31.651 36.7169 33.3885 35.3738 34.6954C34.0314 36.0023 32.2468 36.7224 30.3484 36.7224C28.45 36.7224 26.6654 36.003 25.323 34.6954C23.9806 33.3879 23.2416 31.651 23.2416 29.8028C23.2416 27.9546 23.9806 26.217 25.323 24.9101C26.6654 23.6032 28.45 22.8831 30.3484 22.8831ZM30.3484 17.957C23.6289 17.957 18.1812 23.2608 18.1812 29.8028C18.1812 36.3447 23.6289 41.6485 30.3484 41.6485C37.0679 41.6485 42.5156 36.3447 42.5156 29.8028C42.5156 23.2608 37.0679 17.957 30.3484 17.957Z" fill="white"/>
<path d="M13.7718 29.8028C13.7718 34.0399 15.4572 37.9005 18.2095 40.7825C12.3514 40.3696 7.73007 35.6113 7.73007 29.8028C7.73007 23.9943 12.3514 19.236 18.2095 18.8231C15.4572 21.7051 13.7718 25.567 13.7718 29.8028Z" fill="white"/>
<path d="M52.9634 29.8028C52.9634 35.6113 48.3421 40.3696 42.484 40.7825C45.2363 37.9005 46.9216 34.0399 46.9216 29.8028C46.9216 25.5657 45.2363 21.7051 42.484 18.8231C48.3421 19.236 52.9634 23.9943 52.9634 29.8028Z" fill="white"/>
<path d="M60.2514 29.8028C60.2514 32.9409 58.1813 35.6089 55.2984 36.5832C56.5802 32.2318 56.5809 27.3732 55.2984 23.0224C58.1813 23.9967 60.2514 26.6647 60.2514 29.8028Z" fill="white"/>
<path d="M4.49493 31.3424C4.60612 33.1468 4.91221 34.9001 5.39445 36.5829C-1.09958 34.593 -1.09645 25.012 5.39445 23.0233C4.7042 25.6622 4.18073 28.5795 4.49493 31.3424Z" fill="white"/>
<path d="M41.6245 41.6194C41.2003 47.3227 36.3129 51.8219 30.3467 51.8219C24.3806 51.8219 19.4932 47.3227 19.069 41.6194C22.0293 44.2989 25.9959 45.9397 30.3467 45.9397C34.6975 45.9397 38.6642 44.2989 41.6245 41.6194Z" fill="white"/>
<path d="M41.6245 17.9863C38.6642 15.3067 34.6988 13.6659 30.3467 13.6659C25.9947 13.6659 22.0293 15.3067 19.069 17.9863C19.4932 12.2829 24.3806 7.78375 30.3467 7.78375C36.3129 7.78375 41.2003 12.2829 41.6245 17.9863Z" fill="white"/>
<path d="M37.3111 54.0952C35.2666 60.4182 25.4256 60.4152 23.3823 54.0952C27.8506 55.3431 32.8429 55.3431 37.3111 54.0952Z" fill="white"/>
<path d="M37.3111 5.50984C32.8429 4.26189 27.8506 4.26189 23.3823 5.50984C25.4269 -0.812599 35.2679 -0.809559 37.3111 5.50984Z" fill="white"/>
</g>
<defs>
<clipPath id="clip0_754_237">
<rect width="60" height="60" fill="white" transform="translate(0.524902)"/>
</clipPath>
</defs>
</svg>
